<svg width="188" height="35" viewBox="0 0 188 35" fill="none" xmlns="http://www.w3.org/2000/svg">
<path d="M2.68001 14.0144L3.47367 14.0711L4.38071 13.9294L5.25941 13.6743L6.1381 13.4759L6.90342 13.3625L7.55536 13.3341L8.43405 13.3908L9.08599 13.5609L9.56786 13.731L10.1914 13.9577L10.7867 14.3262L11.3536 14.7514L11.9488 15.2616L11.9205 14.9215L11.7504 14.2128L11.6654 13.3341L11.6937 12.6539L11.8638 11.6051L12.289 10.4996L12.7142 9.8477L13.2244 9.11073L13.6495 8.51548L13.9897 7.89189L14.1881 7.29664L14.2164 6.78643L14.1598 6.44629L14.3298 6.30457L14.6133 7.06988L13.9046 8.94066L13.0543 10.2445L12.6291 10.8965L12.3173 11.8602L12.1473 12.5121L12.0906 13.5326L12.1756 14.1845L12.3173 14.8931L12.4874 15.6301L12.6008 16.282L12.0055 15.9702L11.1835 15.1199L9.99303 14.3829L9.00095 14.0428L7.92384 13.816L7.0168 13.7877L6.05307 13.816L5.17437 14.0995L3.78546 14.3546L2.90677 14.2695L2.59497 14.1561L2.68001 14.0144Z" fill="white"/>
<path d="M23.1451 27.2799L22.4365 28.1303L21.6145 29.1791L20.7358 28.9806L18.7233 27.9035L17.4194 27.1666L15.8605 26.1745L14.7267 25.3525L13.8763 24.5872L13.3094 23.7368L12.7425 22.7164L12.5157 22.0645L13.3944 23.1699L14.4999 24.162L15.3219 24.7572L16.1156 25.2674L16.9943 25.6643L18.043 26.1178L19.2052 26.543L20.3106 26.8264L21.5011 27.0532L22.72 27.2233H23.1735L23.1451 27.2799Z" fill="white"/>
<path d="M7.64038 13.3908C8.85922 13.4475 10.0214 13.8444 11.0418 14.4963C9.05764 13.0791 7.18686 13.2208 5.74126 13.5326C6.3932 13.4192 7.01679 13.3625 7.64038 13.3908Z" fill="#1B61C4"/>
<path d="M48.8541 4.43378C48.1171 3.89522 47.3802 3.41336 46.6432 2.98818C39.8971 -0.838402 32.6974 1.48589 28.7858 6.10614C24.449 11.2366 25.6678 16.7639 19.8004 18.0111C17.4194 18.5213 15.6337 17.7843 14.5849 17.104C15.7187 16.6788 18.695 14.2128 17.8163 10.1311C16.8242 5.62427 13.8763 5.42586 14.1314 6.21952C14.7833 8.11864 12.7708 9.05402 12.0055 11.3216C12.0906 11.0665 12.2039 10.8398 12.3457 10.613C12.9409 9.56423 13.8196 8.74223 14.2448 7.60843C14.3865 7.23994 14.4432 6.84311 14.3582 6.44628C14.4715 6.81476 14.4432 7.23994 14.3298 7.63677C13.9897 8.79892 13.111 9.67761 12.5724 10.7264C11.6937 12.3704 11.9772 14.4112 12.5441 16.1403L12.1189 15.7151C10.3899 13.901 7.64039 13.2207 5.25941 13.901C4.46574 14.1561 3.58705 14.3829 2.76504 14.1278C3.58705 14.3262 4.4374 14.0711 5.20271 13.7593C5.40113 13.7026 5.59955 13.6459 5.79796 13.5892C5.03264 13.7593 4.38071 13.9861 3.89884 14.0428C1.99972 14.2979 1.43282 13.1074 1.20606 13.9577C0.35571 17.019 5.68458 22.0644 11.3536 18.6913C11.552 19.5133 11.7788 20.307 12.0906 21.0723C12.6575 22.4045 13.6495 23.51 14.8117 24.3604C17.6462 26.4579 21.5862 27.2516 23.2585 27.2232C22.72 27.9318 22.2098 28.5554 21.7562 29.0656C21.4444 29.4058 21.161 29.6892 20.9059 29.916C20.7925 30.0294 20.6791 30.1427 20.6224 30.2561C20.1973 31.1065 21.3027 32.4104 24.449 32.2403C24.7892 32.2119 25.1293 32.1836 25.4978 32.1269C25.7529 32.0702 26.0363 32.0419 26.2914 31.9568C27.0001 31.7868 27.737 31.5317 28.4457 31.1632C29.4377 30.653 30.4015 29.9727 31.2235 29.0656C31.9888 28.2153 32.6407 27.1665 33.1226 25.891C35.2768 24.7005 36.1555 22.2912 39.5002 20.392C40.1238 20.0236 41.0592 19.57 42.278 19.2299C43.4969 18.8898 44.9425 18.6063 46.4448 18.4646C47.5502 18.3512 48.6557 18.2945 49.7328 18.3512C50.9233 18.4079 52.0571 18.5496 53.0208 18.8614C53.7011 19.0882 54.2964 19.3716 54.7499 19.7401C55.4868 14.2979 53.6728 8.06195 48.8541 4.43378Z" fill="#1B61C4"/>
<path d="M54.6648 19.7119C54.2113 19.3434 53.6161 19.0599 52.9358 18.8332C51.9721 18.5214 50.8666 18.3797 49.6478 18.323C48.5707 18.2946 47.4652 18.323 46.3597 18.4363C44.8858 18.5781 43.4402 18.8615 42.193 19.2017C40.9742 19.5418 40.0388 19.9953 39.4152 20.3638C35.9854 22.4047 34.9083 24.729 33.0376 25.8628C32.5557 27.1383 31.9038 28.187 31.1384 29.0374C30.3164 29.9444 29.3527 30.6531 28.3606 31.1349C27.652 31.5034 26.915 31.7585 26.2064 31.9286C25.923 31.9853 25.6678 32.042 25.4127 32.0987C34.3698 34.7914 41.1726 33.5159 46.3597 30.6531C47.2384 30.1712 48.0604 29.6326 48.8541 29.0657C49.506 28.6122 50.1013 28.102 50.6965 27.5918C51.9154 26.5147 52.9074 25.1258 53.5877 23.5385C54.0979 22.348 54.4664 21.0441 54.6648 19.7119Z" fill="#FCFFFF"/>
<path d="M50.6965 27.5917C50.1013 28.1019 49.506 28.5838 48.8541 29.0656C50.4131 29.6892 51.9154 29.9727 53.1909 29.9727C54.9199 30.001 56.2522 29.5475 56.7624 28.8672C57.6411 27.6767 56.1104 26.1178 53.5877 23.51C52.9074 25.1257 51.9154 26.5146 50.6965 27.5917Z" fill="#1B61C4"/>
<path d="M34.965 29.8593C34.5682 29.2074 34.5115 28.357 34.795 27.45C36.0138 23.5384 41.7962 19.8252 46.7566 19.7968C49.6478 19.7685 51.3201 21.129 51.3201 23.0848C51.2351 25.806 48.1171 29.094 44.2339 30.8797C42.6465 31.5884 41.0309 32.0419 39.5569 32.1836C39.642 32.1836 39.727 32.1553 39.812 32.1553C41.7395 31.8151 43.752 31.0498 45.5377 29.916C47.3235 28.8106 48.7691 27.4216 49.6761 25.976C50.1863 25.154 50.4414 24.332 50.4414 23.5951C50.4414 21.8377 48.9108 20.6755 46.3314 20.7322C42.0229 20.8172 37.0626 23.9919 35.9288 27.365C35.6737 28.1586 35.702 28.8672 36.0138 29.4625C36.6657 30.653 38.3948 31.1065 40.464 30.7947C43.3835 30.3412 46.5582 28.357 47.8053 26.1745C48.1455 25.6076 48.2872 25.0407 48.2589 24.5304C48.1738 23.3683 47.0684 22.6597 45.3393 22.7447C42.5332 22.8864 39.3302 24.9273 38.4798 27.1098C38.2814 27.5917 38.2814 28.0452 38.4515 28.3854C38.7916 29.1507 39.812 29.4908 41.1443 29.3208C43.0434 29.0657 45.0842 27.7618 45.8495 26.3445C46.0196 26.0327 46.0763 25.7209 46.0479 25.4658C45.9629 24.8706 45.3393 24.5304 44.4323 24.6155C43.015 24.7289 41.3994 25.7493 40.9175 26.8547C40.8325 27.0248 40.8325 27.2232 40.8608 27.365C40.9742 27.6767 41.371 27.8468 41.9096 27.7618C42.6749 27.6484 43.4685 27.1382 43.752 26.5713C43.7803 26.5146 43.7803 26.4579 43.7803 26.4012C43.752 26.2878 43.6386 26.2311 43.4402 26.2595L43.1284 26.2878C42.845 26.3162 42.5615 26.5146 42.4481 26.713C42.4198 26.7697 42.3631 26.8264 42.2781 26.8264C42.2214 26.8264 42.193 26.8264 42.193 26.7981V26.7697C42.4481 26.2595 43.1851 25.7776 43.8654 25.6926C44.3189 25.6642 44.6023 25.806 44.659 26.0894C44.6874 26.2028 44.659 26.3729 44.574 26.5146C44.3472 26.9681 43.8937 27.4216 43.3268 27.7901C42.7599 28.1586 42.108 28.3854 41.4844 28.4704C40.634 28.5838 39.9821 28.3287 39.7837 27.8185C39.6987 27.5917 39.6987 27.3083 39.8404 26.9965C40.1522 26.2595 40.8325 25.5225 41.7678 24.9273C42.7032 24.332 43.752 23.9635 44.7157 23.9069C45.9629 23.8218 46.7849 24.3037 46.8983 25.1257C46.955 25.4942 46.8416 25.891 46.6148 26.3162C46.133 27.1665 45.2826 28.0169 44.2055 28.6972C43.1284 29.3775 41.9379 29.831 40.7758 30.001C39.1317 30.2278 37.8279 29.831 37.3744 28.8956C37.1476 28.4421 37.1476 27.8752 37.3744 27.2799C38.3381 24.6155 42.2781 22.1211 45.6795 22.0077C47.777 21.9227 49.0242 22.8297 49.1092 24.2186C49.1376 24.8139 48.9391 25.4942 48.5423 26.1745C47.8053 27.4216 46.5865 28.6121 45.0275 29.5759C43.4969 30.5396 41.7678 31.1915 40.1238 31.475C37.7995 31.7017 35.7587 31.1915 34.965 29.8593Z" fill="black"/>
<path d="M41.6545 13.9294C41.7395 12.9373 41.0309 12.087 40.0955 12.0019C39.1601 11.9169 38.3381 12.6822 38.253 13.646C38.168 14.638 38.8766 15.4884 39.812 15.5734C40.7758 15.6585 41.5978 14.9215 41.6545 13.9294Z" fill="white"/>
<path d="M41.7962 11.6618C42.9583 11.2933 44.2339 11.8602 44.2055 12.1153C44.2055 12.3137 43.3835 12.257 41.9663 12.7672C40.634 13.2774 40.0955 13.816 39.9821 13.6743C39.8404 13.4759 40.549 12.087 41.7962 11.6618Z" fill="#1B61C4"/>
<path d="M25.5828 32.1552C25.5828 32.1552 27.0001 31.9001 27.652 31.5033C27.652 31.5033 32.2156 33.1473 38.6499 32.5237C45.0842 31.9001 47.3235 29.9727 47.3235 29.9727C47.3235 29.9727 43.2134 33.3174 35.5603 33.5725C31.6487 33.6008 27.0851 32.8639 25.5828 32.1552Z" fill="#EDEDED"/>
<path d="M21.6428 29.094C21.6428 29.094 14.0464 26.2312 12.6858 22.6313C12.6858 22.6313 13.933 26.543 20.5374 30.2562L21.6428 29.094Z" fill="#EDEDED"/>
<path d="M29.9196 5.65269C29.9196 5.65269 44.489 -4.7216 53.0775 9.45092C54.268 11.18 54.8633 16.6789 54.8633 16.6789C54.8633 16.6789 55.3735 9.8761 48.8541 4.43385C46.2464 2.02452 37.7995 -1.51861 30.7416 4.23543C29.3244 5.22751 26.8017 8.37381 26.3198 10.1596C26.2914 10.1312 28.3039 6.84318 29.9196 5.65269Z" fill="#2174D8"/>
<path d="M13.508 16.0762C13.5388 16.0762 13.5743 16.0831 13.6057 16.1025L13.6349 16.126L13.6398 16.1318H13.6408C13.6414 16.1325 13.6425 16.1343 13.6437 16.1357C13.6463 16.1386 13.6503 16.1428 13.6555 16.1484C13.6663 16.1603 13.6832 16.1784 13.7053 16.2012C13.7494 16.2466 13.8162 16.3119 13.9045 16.3916C14.0374 16.5115 14.2194 16.6637 14.4494 16.8262L14.6955 16.9912L14.7043 16.9971L14.7121 17.0049L14.7394 17.0342C14.7504 17.0476 14.7617 17.065 14.7697 17.085C14.7795 17.1094 14.7834 17.1343 14.7814 17.1592L14.759 17.2334L14.7316 17.2891H14.6701L14.6506 17.293L14.6262 17.3174H14.5275L14.5031 17.3018C14.1443 17.0721 13.8634 16.8494 13.6721 16.6797C13.5764 16.5949 13.502 16.5221 13.4514 16.4688C13.4263 16.4423 13.4063 16.4194 13.3918 16.4014C13.3847 16.3925 13.377 16.383 13.3713 16.374C13.3691 16.3706 13.3671 16.3656 13.3644 16.3604C13.3402 16.3267 13.3303 16.2879 13.3303 16.2539C13.3303 16.2128 13.3429 16.1631 13.3801 16.126L13.4103 16.1025C13.4417 16.0832 13.4772 16.0762 13.508 16.0762Z" fill="white" stroke="white" stroke-width="0.2"/>
<path d="M12.1621 15.2896C12.1621 15.3194 12.1639 15.3864 12.1045 15.4458C12.0848 15.4655 12.06 15.4794 12.0312 15.4849C12.0043 15.4899 11.9808 15.4864 11.9668 15.4829L11.9434 15.4751H11.9082L11.8789 15.4468C10.5207 14.1165 9.19605 13.6373 8.00097 13.5435C6.80292 13.4494 5.7283 13.7401 4.8623 13.9673L4.86328 13.9683C4.49458 14.0817 4.14817 14.1681 3.85546 14.1978L3.85644 14.1987C2.83935 14.344 2.19623 14.0806 1.7666 13.9087V13.9097C1.65098 13.8663 1.56356 13.8328 1.49414 13.813C1.43569 13.7963 1.40447 13.7947 1.38867 13.7964C1.38429 13.8012 1.3756 13.8108 1.36425 13.8315C1.34443 13.8679 1.33004 13.9041 1.30078 13.9634C1.12792 14.5973 1.24771 15.3481 1.61132 16.0962C1.97576 16.8459 2.58128 17.5853 3.36328 18.186H3.36425C5.65382 19.9171 8.5569 20.0318 11.1602 18.4644L11.1846 18.4497H11.2686L11.3066 18.4556C11.319 18.4593 11.3314 18.4643 11.3428 18.4722C11.3628 18.4862 11.3744 18.504 11.3799 18.5122L11.3955 18.5356L11.416 18.5552L11.4228 18.5825C11.6207 19.4021 11.8461 20.1909 12.1553 20.9497H12.1533C12.1774 21.0022 12.1787 21.0578 12.1572 21.1079C12.1465 21.1329 12.1316 21.155 12.1133 21.1733L12.0498 21.2183L12.0293 21.229H12.0059C11.9592 21.229 11.9202 21.2068 11.8955 21.1821C11.8774 21.164 11.8641 21.1376 11.8564 21.1069L11.8555 21.1079C11.5852 20.4053 11.3673 19.6777 11.1758 18.9263C8.5921 20.3869 5.72745 20.2824 3.41211 18.6528L3.18652 18.4878C2.35292 17.8554 1.70453 17.0632 1.31445 16.2505C0.924972 15.439 0.789019 14.5984 0.99609 13.8735L0.998043 13.8696L1.04199 13.7476C1.08938 13.6321 1.14819 13.5363 1.23535 13.478L1.23925 13.4751L1.31933 13.4399C1.40097 13.4165 1.48673 13.4259 1.56738 13.4468C1.674 13.4744 1.78899 13.5273 1.90136 13.5835C2.28949 13.7497 2.86523 13.968 3.80175 13.8579H3.80273L4.00293 13.8276C4.21721 13.7876 4.47305 13.7199 4.74804 13.6353L4.75097 13.6343L5.4414 13.4497C6.17256 13.267 7.02145 13.1123 7.94433 13.1743C9.10944 13.2527 10.3868 13.6759 11.6963 14.8081C11.3932 13.3833 11.4928 12.281 11.7832 11.3794C12.0934 10.4164 12.6194 9.68872 13.0869 9.05127C13.7737 8.07831 14.3007 7.38533 13.9512 6.33643L13.9492 6.32861C13.9181 6.20414 13.9096 6.0452 14.0322 5.92236C14.1257 5.82885 14.2652 5.78152 14.415 5.76611C14.567 5.75052 14.742 5.76632 14.9209 5.81104H14.9228L15.1318 5.87842C16.1876 6.27794 17.4086 7.59704 17.9707 10.1665L18.0459 10.5552C18.3642 12.4737 17.856 14.0258 17.1133 15.1636C16.3238 16.3729 15.2654 17.1193 14.6465 17.3403L14.6455 17.3384C14.5789 17.366 14.5147 17.3477 14.4717 17.312C14.4397 17.2853 14.4154 17.2471 14.4053 17.2046L14.3994 17.1606L14.4131 17.0991C14.4206 17.0819 14.4301 17.068 14.4375 17.0581C14.4532 17.0371 14.4735 17.0182 14.4863 17.0054L14.5019 16.9897L14.5225 16.9819C15.0806 16.7777 16.0772 16.0843 16.8252 14.938C17.524 13.867 18.0038 12.4034 17.7041 10.5786L17.6338 10.2095C17.0796 7.75558 15.9383 6.54322 14.998 6.1792L14.8105 6.1167C14.49 6.01809 14.3235 6.08471 14.2559 6.12549C14.2539 6.12847 14.2513 6.13201 14.25 6.13721C14.2479 6.14557 14.2462 6.16196 14.2549 6.18799L14.3203 6.4165C14.5906 7.53823 13.9948 8.32904 13.3623 9.2251L13.3613 9.22607C12.8934 9.86417 12.379 10.5755 12.0869 11.5249C11.7956 12.4719 11.7243 13.6638 12.1592 15.2632L12.1621 15.2769V15.2896Z" fill="white" stroke="white" stroke-width="0.2"/>
<path d="M28.9588 5.60059C32.7419 1.46601 39.4214 -0.947641 46.3231 2.66113L46.6629 2.84375L47.2352 3.17578C47.8013 3.5176 48.3516 3.89108 48.8856 4.29688L49.2997 4.62109C53.3735 7.93401 55.507 13.526 54.8397 19.1631L54.7635 19.7266C54.5888 20.9243 54.2829 22.0785 53.8651 23.1514L53.6795 23.6064C52.9656 25.2627 51.9648 26.6649 50.7332 27.7246C50.135 28.2657 49.5089 28.7491 48.8846 29.2031C48.2865 29.6516 47.6566 30.0673 47.0194 30.4512L46.3807 30.8252C42.9349 32.7901 39.0342 33.7861 34.8231 33.7861C31.8361 33.7861 28.6799 33.3022 25.3836 32.3076V32.3047C25.3582 32.2983 25.3378 32.2885 25.326 32.2783C25.3091 32.2636 25.2967 32.2461 25.2879 32.2314C25.28 32.2182 25.2724 32.2016 25.2664 32.1836L25.2557 32.127L25.2674 32.0742C25.2741 32.0599 25.283 32.049 25.2899 32.041C25.3046 32.024 25.322 32.0108 25.3368 32.002C25.3633 31.9861 25.4026 31.9697 25.4413 31.9697H25.4559L25.4696 31.9746C33.3293 34.3212 40.3298 33.8375 46.2538 30.5371L46.8836 30.168C47.508 29.7883 48.1164 29.3799 48.7098 28.9561L49.1756 28.6113C49.6404 28.2605 50.101 27.8907 50.5448 27.4893L50.5457 27.4883L50.7635 27.29C51.842 26.2808 52.7231 25.0019 53.3827 23.498L53.5663 23.0596C53.9783 22.0204 54.2804 20.8806 54.453 19.6973L54.5252 19.1445C55.162 13.6203 53.0761 8.12614 49.1122 4.91211L48.7088 4.59863C48.004 4.06293 47.2717 3.58411 46.5125 3.19043L46.5096 3.18945C39.6373 -0.601217 32.9799 1.76162 29.2176 5.87988L28.8622 6.28418C27.1729 8.28317 26.3274 10.3388 25.5907 12.1807V12.1816C24.9969 13.6378 24.4595 14.963 23.6161 16.0146C22.7681 17.0719 21.6134 17.8488 19.7918 18.2217L19.7928 18.2227C17.3796 18.7397 15.5386 17.9917 14.4461 17.3018L14.4373 17.2959L14.4295 17.2881C14.4186 17.2771 14.388 17.2482 14.3719 17.208C14.3524 17.159 14.3576 17.108 14.3817 17.0596L14.3895 17.0449L14.4012 17.0332C14.4123 17.0221 14.4404 16.9916 14.4803 16.9756C14.505 16.9657 14.5304 16.9628 14.5555 16.9648L14.6297 16.9863L14.6395 16.9912L14.5858 17.0732L14.6395 16.9922C15.6716 17.6616 17.4306 18.3596 19.7225 17.8564H19.7235L20.0409 17.7842C21.5943 17.3994 22.6013 16.6908 23.3543 15.752C24.1618 14.7452 24.6812 13.4701 25.2635 12.0215V12.0205L25.5565 11.3174C26.256 9.65176 27.0979 7.81082 28.5956 6.01367L28.5965 6.0127L28.9588 5.60059Z" fill="white" stroke="white" stroke-width="0.2"/>
<path d="M11.9699 20.9205C12.0188 20.8952 12.0739 20.9044 12.1106 20.9264C12.1508 20.9507 12.1785 20.9931 12.1867 21.0436C13.661 24.8331 16.4553 27.9114 20.2668 29.9449L20.6389 30.1383L20.6535 30.1461L20.6653 30.1569C20.6763 30.1679 20.7059 30.1969 20.7219 30.2369C20.7317 30.2614 20.7356 30.2862 20.7336 30.3112L20.7121 30.3864L20.6496 30.5104L20.5793 30.4391C20.5748 30.4395 20.5703 30.441 20.5657 30.441H20.5139L20.4924 30.4303C16.3925 28.3519 13.3995 25.1327 11.8586 21.1422C11.8286 21.0917 11.8366 21.0341 11.8596 20.9957C11.8828 20.9573 11.9225 20.9302 11.9699 20.9205Z" fill="white" stroke="white" stroke-width="0.2"/>
<path d="M47.1283 18.2015C47.9801 18.1402 48.7981 18.1187 49.5687 18.1615L49.5677 18.1625C50.6886 18.2123 51.6814 18.3493 52.5452 18.5746L52.9085 18.6761L52.9095 18.6771L53.1732 18.765C53.6889 18.9481 54.1419 19.1673 54.5179 19.4349L54.6995 19.5726L54.7074 19.5795L54.6361 19.6508L54.7074 19.5804C54.7443 19.6176 54.7581 19.6664 54.7581 19.7074C54.7581 19.7484 54.7443 19.7972 54.7074 19.8344C54.6702 19.8715 54.6205 19.8851 54.5794 19.8851C54.5411 19.8851 54.4963 19.873 54.4603 19.8412V19.8422C54.0483 19.5126 53.4664 19.233 52.7923 19.0082V19.0092C51.896 18.7291 50.8286 18.5598 49.5609 18.5316H49.5599C48.7974 18.5104 47.9874 18.5213 47.1536 18.5756L46.3128 18.6449C44.8733 18.786 43.433 19.0669 42.1908 19.4056L42.1917 19.4066C40.7868 19.8 39.8878 20.3046 39.4671 20.557L39.4681 20.558C37.2708 21.9102 36.2286 23.1188 35.3509 24.0814L35.3519 24.0824C34.6727 24.8464 34.0668 25.5393 33.0863 26.0873L33.0404 26.1127L32.9925 26.0892C32.9705 26.0782 32.9561 26.0743 32.9495 26.0726C32.9476 26.0721 32.9462 26.0718 32.9456 26.0717H32.9525C32.9439 26.0717 32.9114 26.0726 32.8822 26.0629C32.8646 26.057 32.8404 26.0451 32.8216 26.0209C32.811 26.0072 32.805 25.9923 32.8011 25.9779C32.7771 25.931 32.7853 25.8818 32.7943 25.8549C32.8068 25.8173 32.83 25.7829 32.8538 25.7592L32.8636 25.7494L32.8763 25.7426L33.2054 25.5463C33.9413 25.0729 34.4635 24.4789 35.0599 23.808L35.0609 23.807L35.7738 23.0355C36.5543 22.2176 37.5811 21.2655 39.2484 20.2181L39.2503 20.2172L39.6702 19.9808C40.1858 19.7083 40.9895 19.3441 42.0814 19.0443H42.0824L42.5687 18.9183C43.7186 18.6333 44.9698 18.4003 46.265 18.2758L47.1283 18.2015Z" fill="white" stroke="white" stroke-width="0.2"/>
<path d="M28.7606 21.5944C28.7982 21.6069 28.8324 21.6301 28.8563 21.6539C28.9108 21.7085 28.8988 21.7781 28.8875 21.8121C28.8812 21.831 28.8725 21.8495 28.8621 21.8658L28.828 21.9088L28.8211 21.9147L28.8133 21.9205C26.3667 23.5798 24.7044 25.5761 23.3182 27.3014C23.3143 27.3106 23.3113 27.321 23.3045 27.3297C23.2857 27.3539 23.2615 27.3659 23.244 27.3717C23.2148 27.3813 23.1824 27.3795 23.1737 27.3795C23.1671 27.3795 23.133 27.3821 23.1004 27.3658C23.0853 27.3583 23.0743 27.3488 23.0672 27.3424C23.0604 27.3362 23.0521 27.3282 23.0457 27.3219C23.0089 27.2848 22.9959 27.2359 22.9959 27.1949C22.9959 27.1567 23.0074 27.1118 23.0389 27.0758H23.0379C24.4283 25.3166 26.1369 23.2942 28.616 21.6129L28.617 21.6149C28.6693 21.5744 28.7295 21.584 28.7606 21.5944Z" fill="white" stroke="white" stroke-width="0.2"/>
<path d="M12.0123 20.8037C12.0286 20.8054 12.0488 20.8088 12.068 20.8164C12.0894 20.8251 12.1149 20.8412 12.1344 20.8682C12.1475 20.8865 12.1539 20.907 12.1578 20.9277C12.6604 22.1241 13.5533 23.2131 14.814 24.1377L15.065 24.3164C16.3351 25.1952 17.8334 25.8483 19.2418 26.2881C20.7448 26.7573 22.1379 26.9814 23.0318 26.9814H23.1451C23.1916 26.9814 23.2298 27.0038 23.2545 27.0283C23.2706 27.0444 23.283 27.0675 23.2916 27.0938L23.3131 27.168C23.3151 27.193 23.3112 27.2186 23.3014 27.2432C23.2878 27.2766 23.2633 27.3007 23.2496 27.3145L23.2506 27.3154C22.8115 27.8395 22.45 28.2789 22.192 28.6006C22.063 28.7613 21.9603 28.8926 21.8863 28.9902C21.8093 29.0918 21.7694 29.1488 21.7603 29.167C21.7399 29.2144 21.7062 29.2641 21.6666 29.3125C21.6238 29.3648 21.5696 29.4222 21.5084 29.4834C21.3868 29.6049 21.2289 29.7466 21.0611 29.9004L21.0621 29.9014C21.0028 29.9606 20.936 30.0199 20.8824 30.0664L20.7779 30.1572L20.7545 30.1797C20.6966 30.252 20.6034 30.3665 20.5797 30.5322C20.5565 30.6945 20.598 30.9284 20.8658 31.2373L20.9908 31.3584C21.3038 31.6306 21.7734 31.8359 22.3717 31.958C23.0535 32.0971 23.8929 32.1257 24.8346 32.0273L25.2105 31.9756C26.1083 31.8289 27.1345 31.5133 28.1129 31.0518C29.2312 30.5242 30.2807 29.8085 31.0055 28.9443L31.0064 28.9434L31.2945 28.5996C31.9505 27.7828 32.4901 26.8592 32.858 25.8291L32.859 25.8281L32.981 25.4756C33.2571 24.6393 33.4636 23.7189 33.5621 22.7344H33.5631C33.5657 22.6977 33.5808 22.6552 33.6119 22.624C33.6309 22.6052 33.6583 22.5878 33.693 22.582C33.7227 22.5772 33.751 22.5832 33.7769 22.5938C33.808 22.6001 33.8414 22.6133 33.8668 22.6387C33.8857 22.6576 33.903 22.685 33.9088 22.7197C33.9128 22.7444 33.9079 22.7677 33.901 22.79C33.7868 23.9266 33.5585 25.0094 33.1871 25.9531L33.1881 25.9541C32.7316 27.1809 32.1018 28.2679 31.2711 29.1572L31.2721 29.1582C30.5228 30.0658 29.4317 30.8101 28.2789 31.3525C27.1276 31.8943 25.9073 32.2377 24.8892 32.3389C24.5105 32.4251 24.1338 32.4258 23.7974 32.4258C22.3702 32.4258 21.2587 32.0837 20.6637 31.459L20.6607 31.4561C20.4396 31.2054 20.3057 30.9454 20.2818 30.6836C20.2577 30.4187 20.3473 30.1654 20.5465 29.9355L20.5797 29.9023H20.5807V29.9014L20.5816 29.9004H20.5826V29.8994L20.5855 29.8965H20.5865V29.8955L20.5875 29.8945H20.5885V29.8936L20.5894 29.8926H20.5904V29.8916H20.5914V29.8906H20.5924V29.8896H20.5933V29.8887H20.5943V29.8877L20.5963 29.8857H20.5973V29.8848L20.6002 29.8818H20.6012V29.8809L20.6031 29.8789H20.6041V29.8779H20.6051V29.877L20.6119 29.8701H20.6129V29.8691H20.6139V29.8682L20.6168 29.8652H20.6178V29.8643L20.6197 29.8623H20.6207V29.8613L20.6217 29.8604H20.6226V29.8594L20.6236 29.8584H20.6246V29.8574L20.6256 29.8564H20.6265V29.8555L20.6275 29.8545H20.6285V29.8535L20.6305 29.8516H20.6314V29.8506L20.6334 29.8486H20.6344V29.8477L20.6373 29.8447H20.6383V29.8438L20.6422 29.8398H20.6432V29.8389H20.6441V29.8379L20.6607 29.8213H20.6617V29.8203H20.6627V29.8193L20.6676 29.8145H20.6685V29.8135L20.6724 29.8096H20.6734V29.8086L20.6764 29.8057H20.6773V29.8047L20.691 29.791H20.692V29.79L20.6959 29.7861H20.6969V29.7852L20.7066 29.7754H20.7076V29.7744L20.7086 29.7734H20.7096V29.7725L20.7193 29.7627H20.7203V29.7617L20.7262 29.7559H20.7271V29.7549L20.734 29.748H20.7349V29.7471L20.7457 29.7363H20.7467V29.7354L20.7486 29.7334H20.7496V29.7324L20.7594 29.7227H20.7603V29.7217L20.7633 29.7188H20.7642V29.7178L20.7721 29.71H20.773V29.709L20.7769 29.7051H20.7779V29.7041L20.7818 29.7002H20.7828V29.6992L20.7877 29.6943H20.7887V29.6934L20.7945 29.6875H20.7955V29.6865L20.8014 29.6807H20.8023V29.6797L20.8101 29.6719H20.8111L20.8121 29.6709V29.6699L20.8219 29.6602H20.8228L20.8238 29.6592V29.6582L20.8463 29.6357H20.8473L20.8599 29.623L20.8609 29.6211L20.8639 29.6182C20.9784 29.5036 21.1306 29.366 21.2555 29.248C21.3188 29.1882 21.3755 29.1334 21.4195 29.0869C21.4664 29.0373 21.49 29.0055 21.4967 28.9922L21.5767 28.8711C21.6135 28.8202 21.6611 28.7568 21.7164 28.6855C21.8273 28.5426 21.971 28.3638 22.1217 28.1777C22.3605 27.8827 22.6162 27.5689 22.7974 27.3457C21.8557 27.3158 20.5279 27.089 19.1148 26.6455C17.5948 26.1685 15.9685 25.4416 14.6109 24.4414V24.4404C13.2962 23.4686 12.3465 22.3496 11.8277 21.0527L11.9205 21.0156H11.8209V20.9873C11.8209 20.9486 11.8362 20.9094 11.8521 20.8828C11.861 20.8681 11.8742 20.8507 11.8912 20.8359C11.9073 20.8221 11.9367 20.8028 11.9771 20.8027L12.0123 20.8037Z" fill="white" stroke="white" stroke-width="0.2"/>
<path d="M53.5679 23.343C53.6004 23.339 53.6284 23.3474 53.647 23.3567C53.6788 23.3726 53.7052 23.4012 53.7154 23.4114H53.7163L54.5982 24.3186C55.4369 25.1887 56.1339 25.9513 56.5904 26.6252C56.8949 27.0749 57.0981 27.4938 57.1626 27.886C57.2278 28.2824 57.1492 28.6473 56.899 28.9817L56.8999 28.9827C56.6273 29.3612 56.144 29.6537 55.5318 29.8518C54.9942 30.0257 54.3491 30.1293 53.6402 30.1526L53.3326 30.1575H53.189C51.787 30.1289 50.2728 29.8144 48.7886 29.2151L48.7691 29.2073L48.7554 29.1926C48.7452 29.1824 48.7166 29.1561 48.7007 29.1243C48.6915 29.1057 48.683 29.0785 48.687 29.0461C48.6913 29.0126 48.7078 28.9863 48.7271 28.967L48.7954 28.9124C48.8141 28.9031 48.8412 28.8946 48.8736 28.8987C48.8947 28.9013 48.9127 28.9092 48.9283 28.9192C50.3613 29.48 51.8201 29.7877 53.1929 29.8157H53.4937C54.1887 29.8038 54.8213 29.7092 55.3443 29.5481C55.9442 29.3632 56.3885 29.0946 56.6255 28.7786L56.6919 28.6809C56.8318 28.4484 56.8678 28.1931 56.813 27.9065C56.7495 27.5744 56.5633 27.1993 56.2691 26.7737C55.6799 25.9215 54.6807 24.9007 53.4595 23.6653L53.5308 23.595H53.5025L53.4605 23.6379C53.4471 23.6246 53.4385 23.6094 53.4322 23.595H53.4312V23.593C53.4126 23.549 53.4208 23.504 53.4292 23.4788C53.4298 23.4772 53.4306 23.4755 53.4312 23.4739V23.3518L53.4761 23.3987C53.4806 23.3934 53.4842 23.3877 53.4888 23.3831L53.523 23.3567C53.5361 23.3497 53.5513 23.3451 53.5679 23.343Z" fill="white" stroke="white" stroke-width="0.2"/>
<path d="M65.9681 27.8429V6.14289H73.0361C74.4414 6.14289 75.6814 6.43223 76.7561 7.01089C77.8514 7.58956 78.6987 8.39556 79.2981 9.42889C79.9181 10.4622 80.2281 11.6609 80.2281 13.0249C80.2281 14.3476 79.9491 15.5256 79.3911 16.5589C78.8331 17.5922 78.0684 18.4086 77.0971 19.0079C76.1257 19.5866 74.9994 19.8759 73.7181 19.8759H68.6031V27.8429H65.9681ZM68.6031 17.4889H73.7181C74.8547 17.4889 75.7847 17.0756 76.5081 16.2489C77.2521 15.4016 77.6241 14.3269 77.6241 13.0249C77.6241 11.6816 77.1901 10.5966 76.3221 9.7699C75.4541 8.94323 74.3484 8.52989 73.0051 8.52989H68.6031V17.4889ZM89.2905 28.2149C87.7818 28.2149 86.4385 27.8739 85.2605 27.1919C84.1031 26.4892 83.1938 25.5282 82.5325 24.3089C81.8711 23.0896 81.5405 21.6842 81.5405 20.0929C81.5405 18.5016 81.8608 17.0962 82.5015 15.8769C83.1628 14.6576 84.0721 13.7069 85.2295 13.0249C86.4075 12.3222 87.7405 11.9709 89.2285 11.9709C90.7578 11.9709 92.1011 12.3222 93.2585 13.0249C94.4365 13.7069 95.3458 14.6576 95.9865 15.8769C96.6478 17.0962 96.9785 18.5016 96.9785 20.0929C96.9785 21.6842 96.6478 23.0896 95.9865 24.3089C95.3458 25.5282 94.4468 26.4892 93.2895 27.1919C92.1321 27.8739 90.7991 28.2149 89.2905 28.2149ZM89.2905 25.9209C90.3238 25.9209 91.2228 25.6729 91.9875 25.1769C92.7521 24.6809 93.3515 23.9989 93.7855 23.1309C94.2401 22.2629 94.4675 21.2502 94.4675 20.0929C94.4675 18.9356 94.2401 17.9229 93.7855 17.0549C93.3515 16.1869 92.7418 15.5049 91.9565 15.0089C91.1711 14.5129 90.2618 14.2649 89.2285 14.2649C88.2158 14.2649 87.3168 14.5129 86.5315 15.0089C85.7668 15.5049 85.1571 16.1869 84.7025 17.0549C84.2685 17.9229 84.0515 18.9356 84.0515 20.0929C84.0515 21.2296 84.2685 22.2422 84.7025 23.1309C85.1571 23.9989 85.7771 24.6809 86.5625 25.1769C87.3685 25.6729 88.2778 25.9209 89.2905 25.9209ZM99.9569 27.8429V6.14289H102.437V27.8429H99.9569ZM107.698 34.4149C107.306 34.4149 106.851 34.3322 106.334 34.1669C105.818 34.0222 105.27 33.8259 104.691 33.5779L105.621 31.5009C106.097 31.7076 106.51 31.8626 106.861 31.9659C107.233 32.0692 107.523 32.1209 107.729 32.1209C108.287 32.1209 108.742 31.9659 109.093 31.6559C109.465 31.3666 109.775 30.9429 110.023 30.3849L111.79 26.1689L117.525 12.3429H120.191L112.751 30.0129C112.359 30.9222 111.945 31.7076 111.511 32.3689C111.098 33.0302 110.592 33.5366 109.992 33.8879C109.393 34.2392 108.628 34.4149 107.698 34.4149ZM111.108 27.8429L104.412 12.3429H107.047L112.813 26.1379L113.557 27.8429H111.108ZM140.105 27.8429L146.801 6.14289H149.436L142.709 27.8429H140.105ZM126.899 27.8429L120.265 6.14289H122.9L129.472 27.8429H126.899ZM127.178 27.8429L133.564 6.14289H136.075L129.689 27.8429H127.178ZM139.888 27.8429L133.657 6.14289H136.168L142.492 27.8429H139.888ZM159.726 27.8429L159.602 25.3009V19.6589C159.602 18.4396 159.468 17.4372 159.199 16.6519C158.93 15.8459 158.507 15.2362 157.928 14.8229C157.349 14.4096 156.595 14.2029 155.665 14.2029C154.818 14.2029 154.084 14.3786 153.464 14.7299C152.865 15.0606 152.369 15.5979 151.976 16.3419L149.744 15.4739C150.137 14.7506 150.612 14.1306 151.17 13.6139C151.728 13.0766 152.379 12.6736 153.123 12.4049C153.867 12.1156 154.714 11.9709 155.665 11.9709C157.112 11.9709 158.3 12.2602 159.23 12.8389C160.181 13.3969 160.894 14.2339 161.369 15.3499C161.844 16.4452 162.072 17.8092 162.051 19.4419L162.02 27.8429H159.726ZM155.076 28.2149C153.257 28.2149 151.831 27.8016 150.798 26.9749C149.785 26.1276 149.279 24.9599 149.279 23.4719C149.279 21.9012 149.796 20.7026 150.829 19.8759C151.883 19.0286 153.35 18.6049 155.231 18.6049H159.664V20.6819H155.789C154.342 20.6819 153.309 20.9196 152.689 21.3949C152.09 21.8702 151.79 22.5522 151.79 23.4409C151.79 24.2469 152.09 24.8876 152.689 25.3629C153.288 25.8176 154.125 26.0449 155.2 26.0449C156.089 26.0449 156.864 25.8589 157.525 25.4869C158.186 25.0942 158.693 24.5466 159.044 23.8439C159.416 23.1206 159.602 22.2732 159.602 21.3019H160.656C160.656 23.4099 160.181 25.0942 159.23 26.3549C158.279 27.5949 156.895 28.2149 155.076 28.2149ZM165.516 27.8429V6.14289H167.996V27.8429H165.516ZM178.651 28.2149C177.143 28.2149 175.81 27.8739 174.652 27.1919C173.495 26.4892 172.586 25.5282 171.924 24.3089C171.284 23.0896 170.963 21.6842 170.963 20.0929C170.963 18.5016 171.284 17.0962 171.924 15.8769C172.586 14.6576 173.485 13.7069 174.621 13.0249C175.779 12.3222 177.101 11.9709 178.589 11.9709C180.036 11.9709 181.286 12.3326 182.34 13.0559C183.394 13.7586 184.211 14.7506 184.789 16.0319C185.368 17.3132 185.657 18.8219 185.657 20.5579H172.854L173.474 20.0309C173.474 21.2709 173.691 22.3352 174.125 23.2239C174.58 24.1126 175.21 24.7946 176.016 25.2699C176.822 25.7246 177.742 25.9519 178.775 25.9519C179.871 25.9519 180.79 25.6936 181.534 25.1769C182.299 24.6602 182.888 23.9782 183.301 23.1309L185.44 24.2159C185.048 25.0219 184.521 25.7246 183.859 26.3239C183.219 26.9232 182.454 27.3882 181.565 27.7189C180.697 28.0496 179.726 28.2149 178.651 28.2149ZM173.629 18.9769L172.978 18.4809H183.673L183.022 19.0079C183.022 18.0159 182.826 17.1582 182.433 16.4349C182.041 15.7116 181.514 15.1536 180.852 14.7609C180.191 14.3682 179.426 14.1719 178.558 14.1719C177.711 14.1719 176.905 14.3682 176.14 14.7609C175.396 15.1536 174.787 15.7116 174.311 16.4349C173.857 17.1376 173.629 17.9849 173.629 18.9769Z" fill="white"/>
</svg>
