<svg width="319" height="80" viewBox="0 0 319 80" fill="none" xmlns="http://www.w3.org/2000/svg">
<path d="M28.8668 22.3445C33.5387 29.9667 37.7707 43.2022 37.162 54.0407C36.466 66.4292 25.0393 79.6466 15.4845 79.9996C15.4845 79.9996 30.1676 73.1583 13.8039 52.7406C-9.3592 23.8388 8.42092 8.37238 8.42092 8.37238L30.4441 17.9501L28.8668 22.3445Z" fill="url(#paint0_linear_51_112)"/>
<path d="M24.1965 15.233L8.42021 8.37216C8.42021 8.37216 6.60804 9.95129 4.8943 13.0386C10.3499 15.6014 16.873 16.9398 24.1965 15.233Z" fill="url(#paint1_linear_51_112)"/>
<path d="M15.6733 55.2033C17.1282 57.2276 18.2628 59.1062 19.1293 60.8461C24.6374 60.5553 30.6913 58.6113 37.1563 54.1024C37.1574 54.0819 37.1602 54.0614 37.1615 54.0412C37.2617 52.2607 37.2287 50.4148 37.0868 48.54C29.2663 53.9744 22.0492 55.6555 15.6733 55.2033Z" fill="url(#paint2_linear_51_112)"/>
<path d="M30.1263 18.8354L30.4438 17.9502L24.1969 15.2333C16.8734 16.9401 10.3503 15.6017 4.89468 13.0389C4.18268 14.3213 3.48808 15.8625 2.94756 17.6615C10.1347 21.5853 19.431 23.586 30.1263 18.8354Z" fill="url(#paint3_linear_51_112)"/>
<path d="M15.4844 79.9999C18.0875 79.9035 20.829 78.8472 23.4551 77.1182C21.747 77.4712 20.0833 77.6597 18.4677 77.707C16.9689 79.3067 15.4844 79.9999 15.4844 79.9999Z" fill="url(#paint4_linear_51_112)"/>
<path d="M21.3662 71.8602C24.7196 71.416 28.2584 70.3475 31.9551 68.4633C33.5923 66.0219 34.9387 63.3454 35.858 60.5879C30.6473 63.9764 25.7148 65.7103 21.1318 66.279C21.6146 68.4198 21.6341 70.2717 21.3662 71.8602Z" fill="url(#paint5_linear_51_112)"/>
<path d="M18.4671 77.7068C20.0828 77.6598 21.7461 77.471 23.4546 77.1179C26.601 75.0463 29.5794 72.0052 31.9551 68.4637C28.2584 70.3479 24.7193 71.4164 21.3663 71.8606C20.9224 74.4925 19.6904 76.4014 18.4671 77.7068Z" fill="url(#paint6_linear_51_112)"/>
<path d="M21.132 66.2794C25.7149 65.7107 30.6478 63.9768 35.8582 60.5882C36.5709 58.4498 37.029 56.2644 37.1566 54.1024C30.6916 58.6112 24.6377 60.5552 19.1295 60.846C20.1191 62.8331 20.7629 64.6418 21.132 66.2794Z" fill="url(#paint7_linear_51_112)"/>
<path d="M2.11913 28.4174C2.36226 30.4097 2.82278 32.5447 3.5626 34.8226C11.5271 38.9777 21.974 40.6876 33.9841 33.6901C33.4463 32.0779 32.8602 30.5182 32.2394 29.0386C20.2314 35.2814 9.87284 32.9068 2.11913 28.4174Z" fill="url(#paint8_linear_51_112)"/>
<path d="M10.8582 48.8317C11.7573 50.1061 12.7364 51.4087 13.8035 52.7405C14.4804 53.585 15.0995 54.4042 15.6734 55.2031C22.0494 55.6553 29.2668 53.9743 37.0869 48.5398C36.9579 46.832 36.7381 45.1002 36.4393 43.3708C26.8362 49.8181 18.16 50.6257 10.8582 48.8317Z" fill="url(#paint9_linear_51_112)"/>
<path d="M30.1261 18.8353C19.4308 23.5859 10.1345 21.5853 2.94737 17.6614C2.49311 19.1724 2.14772 20.8635 1.99189 22.7327C9.2917 26.9964 18.9226 29.4033 30.0774 24.468C29.6788 23.7219 29.2746 23.0106 28.8662 22.3449L30.1261 18.8353Z" fill="url(#paint10_linear_51_112)"/>
<path d="M1.99221 22.7328C1.84717 24.4737 1.86943 26.3704 2.11952 28.4173C9.87323 32.9067 20.2318 35.2813 32.2398 29.0389C31.5546 27.4058 30.8269 25.8716 30.0777 24.4681C18.9229 29.4034 9.29201 26.9965 1.99221 22.7328Z" fill="url(#paint11_linear_51_112)"/>
<path d="M3.5628 34.8226C4.27689 37.0216 5.25393 39.3541 6.54192 41.8153C14.3927 45.008 24.2434 45.5033 35.3825 38.4508C34.9693 36.8303 34.4997 35.2358 33.9839 33.6901C21.9742 40.6876 11.5276 38.9774 3.5628 34.8226Z" fill="url(#paint12_linear_51_112)"/>
<path d="M6.54194 41.8153C7.71028 44.048 9.13219 46.3861 10.8581 48.832C18.16 50.6261 26.8361 49.8184 36.4392 43.3711C36.154 41.7207 35.7964 40.0731 35.3829 38.4508C24.2434 45.5033 14.3927 45.008 6.54194 41.8153Z" fill="url(#paint13_linear_51_112)"/>
<path d="M30.4445 17.9499L13.0644 10.3917C11.9291 12.9548 16.0595 11.6943 16.0595 11.6943C25.5068 13.0671 39.6079 30.3982 33.0045 58.547C28.7742 76.5796 15.4845 79.9998 15.4845 79.9998C25.0393 79.6467 36.466 66.4297 37.162 54.0409C37.7711 43.2023 33.5391 29.9669 28.8668 22.3447L30.4445 17.9499Z" fill="url(#paint14_linear_51_112)"/>
<path d="M47.8041 9.67874C47.8156 14.5733 44.6469 17.1778 44.6469 17.1778C44.6469 17.1778 46.8298 13.4307 45.7067 9.72535L47.8041 9.67874Z" fill="url(#paint15_linear_51_112)"/>
<path d="M43.4981 9.90451C44.2832 14.7355 41.5659 17.8085 41.5659 17.8085C41.5659 17.8085 43.1294 13.7633 41.4345 10.2822L43.4981 9.90451Z" fill="url(#paint16_linear_51_112)"/>
<path d="M42.7877 27.6498C43.396 25.3173 33.4253 18.8892 41.8538 12.454C50.2823 6.01894 20.578 1.6353 22.7603 7.81511C24.9425 13.9946 33.0813 25.6057 33.0813 25.6057L39.6082 30.398C39.6082 30.398 42.1988 29.9062 42.7877 27.6498Z" fill="url(#paint17_linear_51_112)"/>
<path d="M42.7872 27.6499C43.3956 25.3173 31.764 18.8875 40.1925 12.4523C48.6209 6.01724 20.5776 1.63568 22.7598 7.81514C24.9421 13.9946 33.0808 25.6057 33.0808 25.6057L39.6078 30.398C39.6078 30.398 42.1984 29.9062 42.7872 27.6499Z" fill="url(#paint18_linear_51_112)"/>
<path d="M19.5608 14.6462C19.5608 14.6462 19.9131 14.2872 20.3973 13.5804L8.42135 8.3721C8.42135 8.3721 -9.35912 23.8385 13.8043 52.7403C19.2105 59.486 21.2265 64.7486 21.5044 68.7737C19.8084 56.0502 14.2206 50.1577 8.78692 34.4336C3.42798 18.9269 14.4067 13.2507 19.5608 14.6462Z" fill="url(#paint19_linear_51_112)"/>
<path d="M13.8036 52.7406C-11.6492 26.9835 4.49339 8.5244 11.8551 3.90563C25.5451 -4.6839 46.415 3.04929 47.5134 6.66702C49.5837 13.4872 48.8936 8.14805 44.9559 7.99745C41.7058 7.87293 42.0341 14.6371 36.4157 14.1418C30.9615 13.6607 31.4777 16.7195 34.8175 22.7327C38.1569 28.7459 39.8588 29.6419 42.2032 28.5995C42.2032 28.5995 42.1242 30.5368 39.6526 30.6433C36.6122 30.7744 31.3253 25.5755 27.6217 20.7769C23.9184 15.9783 11.1389 7.48788 4.66974 18.9272C2.19044 23.3111 1.13828 34.3515 13.8036 52.7406Z" fill="#040823"/>
<path d="M13.8036 52.7406C-11.6492 26.9835 4.49339 8.5244 11.8551 3.90563C25.5451 -4.6839 46.415 3.04929 47.5134 6.66702C49.5837 13.4872 48.4553 12.6955 44.5176 12.5446C41.2675 12.42 39.9173 14.1846 34.6453 12.706C29.3733 11.227 28.1959 14.1682 31.5357 20.1814C34.8756 26.1946 40.031 33.2151 42.7875 27.6496C42.7875 27.6496 42.6922 31.5275 39.6529 31.3741C36.6136 31.2207 31.3257 25.9407 27.622 21.1421C23.9187 16.3435 11.364 7.89345 4.89513 19.3327C2.41549 23.717 1.43045 33.7796 13.8036 52.7406Z" fill="url(#paint20_linear_51_112)"/>
<path d="M11.6688 10.3754C13.5881 7.77507 17.9216 6.97055 17.9216 6.97055C17.9216 6.97055 16.931 7.71351 16.7453 8.30168C16.7453 8.30168 19.7167 6.41333 25.1028 7.40394C25.1028 7.40394 23.3073 7.52777 21.9456 9.1375C21.9456 9.1375 26.0006 6.64881 34.6857 10.8937C34.6857 10.8937 30.5508 10.6853 27.1459 11.4283C27.1459 11.4283 27.8454 12.6356 28.1431 15.9976C28.1431 15.9976 26.6294 13.8836 24.1372 11.9855C18.5999 7.76741 11.6688 10.3754 11.6688 10.3754Z" fill="url(#paint21_linear_51_112)"/>
<path d="M0.00664431 25.0176C0.00942691 26.1097 0.0772533 27.2405 0.227862 28.4144C1.96768 7.00232 20.8055 1.89034 31.9672 1.26425C28.729 1.85903 26.0396 3.3286 24.1961 4.84059C24.1961 4.84059 31.4069 1.92651 40.4966 3.51712C42.7505 3.91155 45.9366 5.46633 47.6381 7.08893C47.5971 6.95015 47.5564 6.81241 47.5122 6.66737C46.4138 3.04929 25.5443 -4.68355 11.8539 3.90598C11.7388 3.97833 11.6195 4.05625 11.5005 4.13416C7.1454 7.01972 0.187861 14.3884 0.00664431 25.0176Z" fill="url(#paint22_linear_51_112)"/>
<path d="M41.562 7.2356C41.3738 7.47664 41.0841 7.6342 40.7547 7.6342C40.2037 7.6342 39.7578 7.19977 39.7317 6.65508C38.2851 6.14134 37.0876 5.60638 37.0876 5.60638C37.0876 5.60638 38.6962 8.01925 40.0367 8.28742C41.3773 8.55559 43.2987 7.57264 43.2987 7.57264C42.7905 7.5316 42.1881 7.40499 41.562 7.2356Z" fill="#040823"/>
<path d="M62.916 60V19.5547H76.0896C78.7089 19.5547 81.02 20.094 83.023 21.1725C85.0646 22.2511 86.6439 23.7533 87.7609 25.6793C88.9165 27.6053 89.4943 29.8394 89.4943 32.3817C89.4943 34.8469 88.9743 37.0425 87.9342 38.9685C86.8942 40.8944 85.469 42.4159 83.6586 43.533C81.8482 44.6115 79.7489 45.1508 77.3607 45.1508H67.8272V60H62.916ZM67.8272 40.7018H77.3607C79.4793 40.7018 81.2126 39.9314 82.5608 38.3907C83.9475 36.8114 84.6408 34.8084 84.6408 32.3817C84.6408 29.8779 83.8319 27.8556 82.2141 26.3149C80.5963 24.7741 78.5355 24.0037 76.0318 24.0037H67.8272V40.7018ZM106.385 60.6933C103.573 60.6933 101.069 60.0578 98.8739 58.7866C96.7168 57.477 95.022 55.6858 93.7893 53.4132C92.5567 51.1406 91.9404 48.5212 91.9404 45.5553C91.9404 42.5893 92.5375 39.97 93.7316 37.6973C94.9642 35.4247 96.659 33.6528 98.8161 32.3817C101.012 31.072 103.496 30.4172 106.27 30.4172C109.12 30.4172 111.624 31.072 113.781 32.3817C115.976 33.6528 117.671 35.4247 118.865 37.6973C120.098 39.97 120.714 42.5893 120.714 45.5553C120.714 48.5212 120.098 51.1406 118.865 53.4132C117.671 55.6858 115.996 57.477 113.839 58.7866C111.682 60.0578 109.197 60.6933 106.385 60.6933ZM106.385 56.4177C108.311 56.4177 109.987 55.9555 111.412 55.031C112.837 54.1065 113.954 52.8354 114.763 51.2176C115.611 49.5998 116.034 47.7123 116.034 45.5553C116.034 43.3982 115.611 41.5107 114.763 39.8929C113.954 38.2751 112.818 37.004 111.354 36.0795C109.89 35.155 108.196 34.6928 106.27 34.6928C104.382 34.6928 102.707 35.155 101.243 36.0795C99.8176 37.004 98.6813 38.2751 97.8339 39.8929C97.025 41.5107 96.6205 43.3982 96.6205 45.5553C96.6205 47.6738 97.025 49.5613 97.8339 51.2176C98.6813 52.8354 99.8369 54.1065 101.301 55.031C102.803 55.9555 104.498 56.4177 106.385 56.4177ZM126.266 60V19.5547H130.888V60H126.266ZM140.695 72.2491C139.963 72.2491 139.115 72.0951 138.152 71.7869C137.189 71.5173 136.169 71.1513 135.09 70.6891L136.823 66.8179C137.709 67.2031 138.48 67.492 139.135 67.6846C139.828 67.8772 140.367 67.9735 140.752 67.9735C141.792 67.9735 142.64 67.6846 143.295 67.1068C143.988 66.5675 144.566 65.7779 145.028 64.7379L148.321 56.8799L159.011 31.1105H163.979L150.113 64.0445C149.381 65.7394 148.61 67.2031 147.801 68.4357C147.031 69.6683 146.087 70.6121 144.97 71.2669C143.853 71.9217 142.428 72.2491 140.695 72.2491ZM147.05 60L134.57 31.1105H139.481L150.228 56.8222L151.615 60H147.05ZM186.014 60.6933C182.163 60.6933 178.754 59.8074 175.788 58.0355C172.822 56.2251 170.491 53.7599 168.796 50.6398C167.102 47.4812 166.254 43.8604 166.254 39.7774C166.254 35.6943 167.082 32.0928 168.739 28.9727C170.433 25.8141 172.745 23.3489 175.672 21.577C178.638 19.7666 182.028 18.8614 185.841 18.8614C188.268 18.8614 190.598 19.3043 192.832 20.1903C195.067 21.0377 197.07 22.2511 198.841 23.8304C200.613 25.3711 201.981 27.1623 202.944 29.2038L198.726 31.3416C197.955 29.7238 196.896 28.3179 195.548 27.1238C194.2 25.9297 192.698 25.0052 191.041 24.3504C189.385 23.657 187.652 23.3104 185.841 23.3104C183.029 23.3104 180.506 24.023 178.272 25.4482C176.038 26.8349 174.285 28.7608 173.014 31.2261C171.782 33.6913 171.165 36.5417 171.165 39.7774C171.165 43.013 171.801 45.8827 173.072 48.3864C174.343 50.8902 176.096 52.8547 178.33 54.2799C180.603 55.6666 183.164 56.3599 186.014 56.3599C187.863 56.3599 189.616 55.994 191.272 55.2621C192.929 54.4917 194.412 53.4517 195.721 52.1421C197.07 50.8324 198.129 49.3302 198.899 47.6353L203.175 49.7731C202.173 51.8917 200.787 53.7791 199.015 55.4355C197.281 57.0918 195.278 58.3822 193.006 59.3067C190.772 60.2311 188.441 60.6933 186.014 60.6933ZM221.185 60.6933C218.373 60.6933 215.869 60.0578 213.673 58.7866C211.516 57.477 209.822 55.6858 208.589 53.4132C207.356 51.1406 206.74 48.5212 206.74 45.5553C206.74 42.5893 207.337 39.97 208.531 37.6973C209.764 35.4247 211.459 33.6528 213.616 32.3817C215.811 31.072 218.296 30.4172 221.069 30.4172C223.92 30.4172 226.423 31.072 228.58 32.3817C230.776 33.6528 232.471 35.4247 233.665 37.6973C234.898 39.97 235.514 42.5893 235.514 45.5553C235.514 48.5212 234.898 51.1406 233.665 53.4132C232.471 55.6858 230.795 57.477 228.638 58.7866C226.481 60.0578 223.997 60.6933 221.185 60.6933ZM221.185 56.4177C223.111 56.4177 224.786 55.9555 226.211 55.031C227.637 54.1065 228.754 52.8354 229.563 51.2176C230.41 49.5998 230.834 47.7123 230.834 45.5553C230.834 43.3982 230.41 41.5107 229.563 39.8929C228.754 38.2751 227.617 37.004 226.154 36.0795C224.69 35.155 222.995 34.6928 221.069 34.6928C219.182 34.6928 217.506 35.155 216.042 36.0795C214.617 37.004 213.481 38.2751 212.633 39.8929C211.825 41.5107 211.42 43.3982 211.42 45.5553C211.42 47.6738 211.825 49.5613 212.633 51.2176C213.481 52.8354 214.636 54.1065 216.1 55.031C217.602 55.9555 219.297 56.4177 221.185 56.4177ZM241.065 60V19.5547H245.688V54.6266L245.456 60H241.065ZM255.452 60.6933C253.025 60.6933 250.888 60.0578 249.039 58.7866C247.228 57.5155 245.822 55.7436 244.821 53.471C243.819 51.1598 243.319 48.5212 243.319 45.5553C243.319 42.5508 243.819 39.9122 244.821 37.6395C245.822 35.3669 247.228 33.595 249.039 32.3239C250.888 31.0527 253.025 30.4172 255.452 30.4172C258.033 30.4172 260.306 31.0527 262.27 32.3239C264.235 33.595 265.756 35.3669 266.835 37.6395C267.952 39.9122 268.51 42.5508 268.51 45.5553C268.51 48.5212 267.952 51.1598 266.835 53.471C265.756 55.7436 264.235 57.5155 262.27 58.7866C260.306 60.0578 258.033 60.6933 255.452 60.6933ZM254.412 56.4755C256.223 56.4755 257.821 56.0133 259.208 55.0888C260.633 54.1643 261.75 52.8739 262.559 51.2176C263.406 49.5613 263.83 47.6738 263.83 45.5553C263.83 43.4367 263.426 41.5492 262.617 39.8929C261.846 38.2366 260.749 36.9462 259.323 36.0217C257.898 35.0973 256.28 34.635 254.47 34.635C252.775 34.635 251.254 35.0973 249.905 36.0217C248.596 36.9462 247.556 38.2366 246.785 39.8929C246.053 41.5492 245.688 43.4367 245.688 45.5553C245.688 47.6738 246.053 49.5613 246.785 51.2176C247.556 52.8739 248.596 54.1643 249.905 55.0888C251.215 56.0133 252.717 56.4755 254.412 56.4755ZM276.596 44.3419C276.596 41.2218 277.193 38.6988 278.387 36.7729C279.581 34.8084 281.102 33.3639 282.951 32.4394C284.839 31.4764 286.823 30.995 288.903 30.995V35.3284C287.208 35.3284 285.571 35.6173 283.991 36.1951C282.451 36.7343 281.179 37.6395 280.178 38.9107C279.176 40.1818 278.676 41.9152 278.676 44.1108L276.596 44.3419ZM274.053 60V31.1105H278.676V60H274.053ZM310.506 60L310.274 55.2621V44.7464C310.274 42.4737 310.024 40.6055 309.523 39.1418C309.023 37.6395 308.233 36.5032 307.154 35.7328C306.076 34.9624 304.67 34.5773 302.937 34.5773C301.357 34.5773 299.99 34.9047 298.834 35.5595C297.717 36.1758 296.793 37.1773 296.061 38.564L291.901 36.9462C292.633 35.598 293.519 34.4424 294.559 33.4795C295.599 32.478 296.812 31.7268 298.199 31.2261C299.585 30.6868 301.165 30.4172 302.937 30.4172C305.633 30.4172 307.848 30.9564 309.581 32.035C311.353 33.075 312.682 34.635 313.568 36.7151C314.454 38.7566 314.878 41.2989 314.839 44.3419L314.781 60H310.506ZM301.839 60.6933C298.449 60.6933 295.791 59.923 293.865 58.3822C291.978 56.8029 291.034 54.6266 291.034 51.8532C291.034 48.9257 291.997 46.6916 293.923 45.1508C295.888 43.5715 298.622 42.7819 302.128 42.7819H310.39V46.6531H303.168C300.471 46.6531 298.545 47.096 297.39 47.982C296.273 48.8679 295.714 50.1391 295.714 51.7954C295.714 53.2976 296.273 54.4917 297.39 55.3777C298.507 56.2251 300.067 56.6488 302.07 56.6488C303.726 56.6488 305.171 56.3021 306.403 55.6088C307.636 54.8769 308.58 53.8562 309.234 52.5465C309.928 51.1983 310.274 49.619 310.274 47.8086H312.239C312.239 51.7376 311.353 54.8769 309.581 57.2266C307.809 59.5378 305.228 60.6933 301.839 60.6933Z" fill="white"/>
<defs>
<linearGradient id="paint0_linear_51_112" x1="1.90108" y1="44.1857" x2="37.2205" y2="44.1857" gradientUnits="userSpaceOnUse">
<stop stop-color="#53418F"/>
<stop offset="1" stop-color="#6CED25"/>
</linearGradient>
<linearGradient id="paint1_linear_51_112" x1="14.5455" y1="17.1792" x2="14.5455" y2="3.2279" gradientUnits="userSpaceOnUse">
<stop stop-color="#53418F"/>
<stop offset="1" stop-color="#6CED25"/>
</linearGradient>
<linearGradient id="paint2_linear_51_112" x1="26.4462" y1="68.7121" x2="26.4462" y2="48.5397" gradientUnits="userSpaceOnUse">
<stop stop-color="#53418F"/>
<stop offset="1" stop-color="#6CED25"/>
</linearGradient>
<linearGradient id="paint3_linear_51_112" x1="16.6957" y1="21.9329" x2="16.6957" y2="10.9273" gradientUnits="userSpaceOnUse">
<stop stop-color="#53418F"/>
<stop offset="1" stop-color="#6CED25"/>
</linearGradient>
<linearGradient id="paint4_linear_51_112" x1="19.4698" y1="84.9111" x2="19.4698" y2="72.1413" gradientUnits="userSpaceOnUse">
<stop stop-color="#53418F"/>
<stop offset="1" stop-color="#6CED25"/>
</linearGradient>
<linearGradient id="paint5_linear_51_112" x1="28.4951" y1="86.5806" x2="28.4951" y2="59.5457" gradientUnits="userSpaceOnUse">
<stop stop-color="#53418F"/>
<stop offset="1" stop-color="#6CED25"/>
</linearGradient>
<linearGradient id="paint6_linear_51_112" x1="25.2111" y1="89.06" x2="25.2111" y2="64.8555" gradientUnits="userSpaceOnUse">
<stop stop-color="#53418F"/>
<stop offset="1" stop-color="#AEFF00" stop-opacity="0.423529"/>
</linearGradient>
<linearGradient id="paint7_linear_51_112" x1="28.1431" y1="77.917" x2="28.1431" y2="54.0593" gradientUnits="userSpaceOnUse">
<stop stop-color="#53418F"/>
<stop offset="1" stop-color="#AEFF00"/>
</linearGradient>
<linearGradient id="paint8_linear_51_112" x1="18.0516" y1="38.51" x2="18.0516" y2="27.3993" gradientUnits="userSpaceOnUse">
<stop stop-color="#53418F"/>
<stop offset="1" stop-color="#6CED25"/>
</linearGradient>
<linearGradient id="paint9_linear_51_112" x1="23.9726" y1="59.338" x2="23.9726" y2="43.3104" gradientUnits="userSpaceOnUse">
<stop stop-color="#53418F"/>
<stop offset="1" stop-color="#6CED25"/>
</linearGradient>
<linearGradient id="paint10_linear_51_112" x1="16.059" y1="27.2487" x2="16.059" y2="15.2518" gradientUnits="userSpaceOnUse">
<stop stop-color="#53418F"/>
<stop offset="1" stop-color="#6CED25"/>
</linearGradient>
<linearGradient id="paint11_linear_51_112" x1="17.0712" y1="32.8288" x2="17.0712" y2="21.0748" gradientUnits="userSpaceOnUse">
<stop stop-color="#53418F"/>
<stop offset="1" stop-color="#6CED25"/>
</linearGradient>
<linearGradient id="paint12_linear_51_112" x1="19.4729" y1="44.5934" x2="19.4729" y2="33.0919" gradientUnits="userSpaceOnUse">
<stop stop-color="#53418F"/>
<stop offset="1" stop-color="#AEFF00"/>
</linearGradient>
<linearGradient id="paint13_linear_51_112" x1="21.4907" y1="51.4031" x2="21.4907" y2="38.1579" gradientUnits="userSpaceOnUse">
<stop stop-color="#53418F"/>
<stop offset="1" stop-color="#6CED25"/>
</linearGradient>
<linearGradient id="paint14_linear_51_112" x1="25.0441" y1="69.5892" x2="25.0441" y2="0.284356" gradientUnits="userSpaceOnUse">
<stop stop-color="#53418F"/>
<stop offset="0.4624" stop-color="#6CED25"/>
<stop offset="0.9785" stop-color="#AEFF00"/>
</linearGradient>
<linearGradient id="paint15_linear_51_112" x1="45.2095" y1="17.3022" x2="46.9376" y2="9.48707" gradientUnits="userSpaceOnUse">
<stop offset="0.0215" stop-color="#AEFF00"/>
<stop offset="1" stop-color="#6CED25"/>
</linearGradient>
<linearGradient id="paint16_linear_51_112" x1="42.1417" y1="17.8422" x2="42.6123" y2="9.8523" gradientUnits="userSpaceOnUse">
<stop offset="0.0215" stop-color="#AEFF00"/>
<stop offset="1" stop-color="#6CED25"/>
</linearGradient>
<linearGradient id="paint17_linear_51_112" x1="37.6002" y1="16.9899" x2="53.3062" y2="27.9476" gradientUnits="userSpaceOnUse">
<stop stop-color="#6CED25"/>
<stop offset="1" stop-color="#53418F"/>
</linearGradient>
<linearGradient id="paint18_linear_51_112" x1="37.3671" y1="17.3021" x2="53.0912" y2="28.2725" gradientUnits="userSpaceOnUse">
<stop stop-color="#53418F"/>
<stop offset="1" stop-color="#AEFF00"/>
</linearGradient>
<linearGradient id="paint19_linear_51_112" x1="11.7026" y1="59.7402" x2="11.7026" y2="-0.398238" gradientUnits="userSpaceOnUse">
<stop stop-color="#53418F"/>
<stop offset="0.4624" stop-color="#AEFF00"/>
<stop offset="0.9785" stop-color="#6CED25"/>
</linearGradient>
<linearGradient id="paint20_linear_51_112" x1="24.266" y1="59.2085" x2="24.266" y2="-14.4402" gradientUnits="userSpaceOnUse">
<stop offset="0.0215" stop-color="#AEFF00"/>
<stop offset="0.5376" stop-color="#6CED25"/>
<stop offset="1" stop-color="#53418F"/>
</linearGradient>
<linearGradient id="paint21_linear_51_112" x1="25.2505" y1="12.0807" x2="35.7502" y2="19.4061" gradientUnits="userSpaceOnUse">
<stop offset="0.0215" stop-color="#AEFF00"/>
<stop offset="1" stop-color="#6CED25"/>
</linearGradient>
<linearGradient id="paint22_linear_51_112" x1="25.1273" y1="18.1054" x2="43.2128" y2="30.7231" gradientUnits="userSpaceOnUse">
<stop offset="0.0215" stop-color="#AEFF00"/>
<stop offset="1" stop-color="#6CED25"/>
</linearGradient>
</defs>
</svg>
