<svg width="193" height="193" viewBox="0 0 193 193" fill="none" xmlns="http://www.w3.org/2000/svg">
<rect width="193" height="193" rx="10.3393" fill="white"/>
<path d="M18.4093 134.805C14.513 128.404 13.9563 120.055 16.7394 111.149C28.7069 72.7416 85.4827 36.2826 134.187 36.0043C162.575 35.726 178.996 49.085 178.996 68.2885C178.161 95.0066 147.546 127.291 109.418 144.825C93.8321 151.782 77.9683 156.235 63.496 157.627C64.3309 157.627 65.1659 157.349 66.0008 157.349C84.9261 154.009 104.686 146.494 122.22 135.362C139.754 124.508 153.948 110.87 162.854 96.6764C167.863 88.6054 170.368 80.5343 170.368 73.2982C170.368 56.0428 155.339 44.632 130.013 45.1886C87.7092 46.0235 39.0045 77.1946 27.872 110.314C25.3671 118.107 25.6455 125.064 28.7069 130.909C35.1081 142.598 52.0852 147.051 72.402 143.99C101.068 139.537 132.239 120.055 144.485 98.6247C147.825 93.0584 149.216 87.4921 148.938 82.4825C148.103 71.0717 137.249 64.1139 120.272 64.9488C92.7189 66.3404 61.2695 86.3789 52.9201 107.809C50.9719 112.54 50.9719 116.993 52.6418 120.333C55.9816 127.847 66.0008 131.187 79.0815 129.517C97.7285 127.013 117.767 114.21 125.281 100.295C126.951 97.2331 127.508 94.1716 127.23 91.6668C126.395 85.8223 120.272 82.4825 111.366 83.3175C97.4501 84.4307 81.5863 94.4499 76.855 105.304C76.0201 106.974 76.0201 108.922 76.2984 110.314C77.4117 113.375 81.308 115.045 86.596 114.21C94.1104 113.097 101.903 108.087 104.686 102.521C104.965 101.964 104.965 101.408 104.965 100.851C104.686 99.7379 103.573 99.1812 101.625 99.4596L98.5634 99.7379C95.7803 100.016 92.9971 101.964 91.8839 103.913C91.6056 104.469 91.049 105.026 90.214 105.026C89.6574 105.026 89.3791 105.026 89.3791 104.748V104.469C91.8839 99.4596 99.12 94.7282 105.8 93.8933C110.253 93.615 113.036 95.0066 113.592 97.7897C113.871 98.903 113.592 100.573 112.757 101.964C110.531 106.417 106.078 110.87 100.512 114.488C94.9454 118.107 88.5442 120.333 82.4213 121.168C74.0719 122.281 67.6707 119.776 65.7225 114.767C64.8876 112.54 64.8876 109.757 66.2791 106.696C69.3406 99.4596 76.0201 92.2234 85.2044 86.3789C94.3887 80.5343 104.686 76.9163 114.149 76.3596C126.395 75.5247 134.466 80.256 135.579 88.327C136.136 91.9451 135.022 95.8415 132.796 100.016C128.065 108.366 119.715 116.715 109.139 123.394C98.5634 130.074 86.8743 134.527 75.4635 136.197C59.3213 138.423 46.5189 134.527 42.0659 125.343C39.8394 120.89 39.8394 115.323 42.0659 109.479C51.5286 83.3174 90.214 58.8259 123.612 57.7127C144.207 56.8777 156.452 65.7837 157.287 79.421C157.566 85.2656 155.618 91.9451 151.721 98.6247C144.485 110.87 132.518 122.56 117.21 132.022C102.181 141.485 85.2044 147.886 69.0623 150.669C46.2406 152.896 26.2021 147.886 18.4093 134.805Z" fill="black"/>
</svg>
