<svg width="193" height="193" viewBox="0 0 193 193" fill="none" xmlns="http://www.w3.org/2000/svg">
<g clip-path="url(#clip0_224_141)">
<path d="M141.557 23.3508C136.974 20.002 132.392 17.0058 127.809 14.362C85.8621 -9.43166 41.0947 5.02082 16.7722 33.7495C-10.194 65.6507 -2.61523 100.019 -39.0989 107.774C-53.9039 110.947 -65.0076 106.364 -71.5288 102.134C-64.4789 99.4906 -45.9726 84.1569 -51.4364 58.777C-57.6051 30.7533 -75.9351 29.5195 -74.3488 34.4545C-70.2951 46.2632 -82.8088 52.0795 -87.5676 66.1794C-87.0388 64.5932 -86.3338 63.1832 -85.4526 61.7732C-81.7513 55.252 -76.2876 50.1407 -73.6438 43.0907C-72.7626 40.7995 -72.4101 38.332 -72.9388 35.8645C-72.2338 38.1557 -72.4101 40.7995 -73.1151 43.267C-75.2301 50.4932 -80.6938 55.957 -84.0426 62.4782C-89.5063 72.7007 -87.7438 85.3906 -84.2188 96.1419L-86.8626 93.4981C-97.6138 82.2182 -114.71 77.9882 -129.515 82.2182C-134.45 83.8044 -139.914 85.2144 -145.025 83.6282C-139.914 84.8619 -134.626 83.2757 -129.867 81.3369C-128.634 80.9844 -127.4 80.6319 -126.166 80.2794C-130.925 81.3369 -134.979 82.7469 -137.975 83.0994C-149.784 84.6857 -153.309 77.2832 -154.719 82.5707C-160.006 101.606 -126.871 132.978 -91.6213 112.004C-90.3876 117.116 -88.9776 122.051 -87.0388 126.809C-83.5138 135.093 -77.3451 141.967 -70.1188 147.254C-52.4939 160.297 -27.9952 165.232 -17.5965 165.055C-20.9452 169.462 -24.1177 173.339 -26.9377 176.512C-28.8764 178.627 -30.6389 180.389 -32.2252 181.799C-32.9302 182.504 -33.6352 183.209 -33.9877 183.914C-36.6314 189.202 -29.7577 197.309 -10.194 196.252C-8.07897 196.075 -5.96398 195.899 -3.67273 195.547C-2.08649 195.194 -0.323997 195.018 1.26225 194.489C5.66849 193.432 10.251 191.845 14.6572 189.554C20.826 186.382 26.8185 182.152 31.9297 176.512C36.6884 171.224 40.7422 164.703 43.7384 156.772C57.1334 149.369 62.5971 134.388 83.3946 122.579C87.2721 120.288 93.0883 117.468 100.667 115.353C108.246 113.238 117.235 111.476 126.576 110.594C133.449 109.889 140.323 109.537 147.021 109.889C154.423 110.242 161.473 111.123 167.466 113.062C171.696 114.472 175.397 116.234 178.217 118.526C182.799 84.6857 171.519 45.9107 141.557 23.3508Z" fill="#1B61C4"/>
<path d="M177.688 118.35C174.868 116.058 171.167 114.296 166.937 112.886C160.944 110.947 154.071 110.066 146.492 109.713C139.794 109.537 132.921 109.713 126.047 110.418C116.882 111.3 107.893 113.062 100.138 115.177C92.5595 117.292 86.7433 120.112 82.8658 122.403C61.5396 135.093 54.8421 149.546 43.2096 156.596C40.2134 164.527 36.1597 171.048 31.4009 176.336C26.2897 181.976 20.2972 186.382 14.1285 189.378C9.72222 191.669 5.13974 193.256 0.733503 194.313C-1.02899 194.666 -2.61525 195.018 -4.20149 195.371C51.4934 212.114 93.7933 204.183 126.047 186.382C131.511 183.386 136.622 180.037 141.557 176.512C145.611 173.692 149.312 170.519 153.013 167.347C160.592 160.65 166.761 152.013 170.991 142.143C174.163 134.741 176.454 126.633 177.688 118.35Z" fill="#FCFFFF"/>
<path d="M153.013 167.347C149.312 170.52 145.611 173.516 141.557 176.512C151.251 180.39 160.592 182.152 168.523 182.152C179.274 182.328 187.558 179.508 190.731 175.278C196.194 167.876 186.677 158.182 170.991 141.967C166.761 152.014 160.592 160.65 153.013 167.347Z" fill="#1B61C4"/>
<path d="M55.1946 181.447C52.7271 177.393 52.3746 172.106 54.1371 166.466C61.7158 142.143 97.6708 119.055 128.514 118.878C146.492 118.702 156.891 127.162 156.891 139.323C156.362 156.243 136.974 176.688 112.828 187.792C102.958 192.198 92.912 195.018 83.747 195.899C84.2758 195.899 84.8045 195.723 85.3333 195.723C97.3183 193.608 109.832 188.849 120.936 181.799C132.039 174.926 141.028 166.289 146.668 157.301C149.841 152.189 151.427 147.078 151.427 142.496C151.427 131.568 141.909 124.342 125.871 124.695C99.0808 125.223 68.2371 144.963 61.1871 165.937C59.6008 170.872 59.7771 175.278 61.7158 178.979C65.7696 186.382 76.5208 189.202 89.387 187.263C107.541 184.443 127.281 172.106 135.036 158.534C137.151 155.009 138.032 151.485 137.856 148.312C137.327 141.086 130.453 136.68 119.702 137.208C102.253 138.09 82.337 150.779 77.0495 164.351C75.8158 167.347 75.8158 170.167 76.8733 172.282C78.9883 177.041 85.3333 179.156 93.617 178.098C105.426 176.512 118.116 168.404 122.874 159.592C123.932 157.653 124.284 155.714 124.108 154.128C123.579 150.427 119.702 148.312 114.062 148.841C105.249 149.546 95.2033 155.891 92.207 162.764C91.6783 163.822 91.6783 165.056 91.8545 165.937C92.5595 167.876 95.027 168.933 98.3758 168.404C103.134 167.699 108.069 164.527 109.832 161.002C110.008 160.649 110.008 160.297 110.008 159.944C109.832 159.239 109.127 158.887 107.893 159.063L105.954 159.239C104.192 159.416 102.429 160.649 101.724 161.883C101.548 162.236 101.196 162.588 100.667 162.588C100.315 162.588 100.138 162.588 100.138 162.412V162.236C101.724 159.063 106.307 156.067 110.537 155.538C113.357 155.362 115.119 156.243 115.472 158.006C115.648 158.711 115.472 159.768 114.943 160.649C113.533 163.469 110.713 166.289 107.188 168.581C103.663 170.872 99.6095 172.282 95.732 172.811C90.4445 173.516 86.3908 171.929 85.157 168.757C84.6283 167.347 84.6283 165.584 85.5095 163.646C87.4483 159.063 91.6783 154.481 97.4945 150.779C103.311 147.078 109.832 144.787 115.824 144.435C123.579 143.906 128.691 146.902 129.396 152.013C129.748 154.304 129.043 156.772 127.633 159.416C124.637 164.703 119.349 169.991 112.652 174.221C105.954 178.451 98.552 181.271 91.3258 182.328C81.1033 183.738 72.9958 181.271 70.1758 175.454C68.7658 172.634 68.7658 169.109 70.1758 165.408C76.1683 148.841 100.667 133.331 121.817 132.626C134.859 132.097 142.614 137.737 143.143 146.373C143.319 150.074 142.086 154.305 139.618 158.534C135.036 166.289 127.457 173.692 117.763 179.684C108.246 185.677 97.4945 189.731 87.272 191.493C72.8195 192.903 60.1296 189.731 55.1946 181.447Z" fill="black"/>
<path d="M96.7895 82.3947C97.3183 76.226 92.912 70.9385 87.0958 70.4097C81.2796 69.881 76.1683 74.6397 75.6396 80.6322C75.1108 86.801 79.5171 92.0884 85.3333 92.6172C91.3258 93.1459 96.437 88.5635 96.7895 82.3947Z" fill="white"/>
<path d="M97.6708 68.2949C104.897 66.0036 112.828 69.5286 112.652 71.1149C112.652 72.3486 107.541 71.9961 98.7283 75.1686C90.4445 78.3411 87.0958 81.6899 86.3908 80.8086C85.5096 79.5749 89.9158 70.9386 97.6708 68.2949Z" fill="#1B61C4"/>
<path d="M-3.14391 195.723C-3.14391 195.723 5.66857 194.137 9.72231 191.669C9.72231 191.669 38.0985 201.892 78.1072 198.014C118.116 194.137 132.04 182.152 132.04 182.152C132.04 182.152 106.483 202.949 58.896 204.536C34.5735 204.712 6.19732 200.129 -3.14391 195.723Z" fill="#EDEDED"/>
<path d="M23.8222 30.9299C23.8222 30.9299 114.414 -33.5775 167.818 54.5473C175.221 65.2986 178.922 99.491 178.922 99.491C178.922 99.491 182.094 57.1911 141.557 23.3512C125.342 8.36994 72.8196 -13.6613 28.9334 22.1174C20.1209 28.2862 4.4347 47.8499 1.43846 58.9536C1.26221 58.7773 13.7759 38.3324 23.8222 30.9299Z" fill="#2174D8"/>
<path d="M16.1424 32.5225C39.5129 5.44099 82.5318 -10.9284 126.88 12.8867L127.935 13.4619L127.937 13.4629L128.833 13.9658C133.297 16.499 137.605 19.343 141.757 22.498L142.408 22.9922C169.853 44.035 183.934 81.3426 178.307 118.443C177.066 126.955 174.76 135.114 171.566 142.566L171.565 142.567C167.128 152.862 160.909 161.574 153.256 168.163L153.257 168.164C149.533 171.533 145.635 174.544 141.749 177.371C136.79 181.09 131.482 184.45 126.179 187.455L126.178 187.454C104.752 199.672 80.4988 205.866 54.3133 205.866C35.7532 205.866 16.1441 202.864 -4.33616 196.688C-4.52125 196.655 -4.65896 196.562 -4.74046 196.491C-4.84677 196.399 -4.92564 196.291 -4.98069 196.199C-5.06759 196.054 -5.15455 195.849 -5.17503 195.638L-5.17991 195.547L-5.17405 195.455C-5.14915 195.248 -5.0449 195.095 -4.96897 195.008C-4.87684 194.902 -4.7697 194.823 -4.67796 194.768C-4.51243 194.668 -4.26752 194.568 -4.02561 194.568H-3.93382L-3.84592 194.595C45.0242 209.185 88.5517 206.181 125.386 185.661C130.65 182.678 135.743 179.342 140.665 175.826C144.531 173.014 148.387 170.034 152.064 166.707L152.071 166.701L152.754 166.091C159.767 159.722 165.475 151.553 169.713 141.892L170.293 140.537C173.142 133.713 175.214 126.142 176.364 118.26V118.258L176.604 116.54C181.356 80.4715 167.343 44.3554 140.653 24.3809L140.649 24.3779C136.266 21.0467 131.714 18.071 126.993 15.623L126.985 15.6191L126.978 15.6152C82.8686 -8.71501 40.1801 7.72666 17.2498 34.8574L17.2508 34.8584C6.7469 47.288 1.4893 60.0702 -3.09202 71.5234L-3.09299 71.5273C-6.78514 80.5819 -10.1221 88.8263 -15.3674 95.3662C-20.6399 101.94 -27.8202 106.771 -39.1448 109.091L-39.1438 109.092C-53.6827 112.207 -64.8793 107.942 -71.7414 103.771L-72.3918 103.369L-72.4504 103.332L-72.5002 103.282C-72.5681 103.214 -72.7582 103.037 -72.8586 102.786C-72.9815 102.479 -72.9459 102.158 -72.7942 101.854L-72.7483 101.764L-72.676 101.692C-72.6081 101.624 -72.4307 101.433 -72.1799 101.333C-71.911 101.225 -71.6323 101.241 -71.3635 101.348L-71.2492 101.398L-71.218 101.414L-71.1887 101.434C-64.7718 105.596 -53.8366 109.939 -39.5852 106.811L-39.5803 106.81L-38.5793 106.591C-28.364 104.258 -21.8427 99.755 -17.0051 93.7236C-11.9846 87.4642 -8.75576 79.5371 -5.13499 70.5293L-5.13206 70.5225L-3.31272 66.1543C1.03696 55.7967 6.27334 44.3489 15.5867 33.1729L15.5896 33.1689L16.1424 32.5225Z" fill="white" stroke="white" stroke-width="1.25181"/>
<path d="M126.811 109.287C133.56 108.667 140.007 108.375 145.998 108.708L145.997 108.709C153.464 109.041 160.018 109.995 165.651 111.581L166.766 111.906L166.775 111.909L167.601 112.181C171.419 113.467 174.717 115.045 177.352 117.048L177.907 117.483L177.931 117.504L177.955 117.526L178.035 117.617C178.206 117.835 178.27 118.098 178.27 118.322C178.27 118.578 178.187 118.885 177.955 119.117C177.723 119.349 177.416 119.432 177.16 119.432C176.921 119.432 176.64 119.359 176.416 119.163L175.923 118.782C173.401 116.899 169.974 115.295 166.045 113.984L164.988 113.666C159.994 112.218 154.176 111.308 147.413 111.059L145.949 111.016H145.946C139.624 110.841 132.777 111.017 125.756 111.719H125.755C116.806 112.596 107.853 114.35 100.129 116.456L100.13 116.457C91.3887 118.905 85.8013 122.049 83.188 123.617C69.5246 132.026 63.0539 139.547 57.5962 145.533C53.3753 150.282 49.6104 154.59 43.5151 157.996L43.2261 158.157L42.9292 158.009C42.7911 157.94 42.702 157.912 42.6616 157.902C42.6543 157.9 42.6482 157.898 42.644 157.897C42.5626 157.898 42.3944 157.896 42.2407 157.845C42.1311 157.808 41.9825 157.734 41.8647 157.583C41.8034 157.504 41.763 157.42 41.7378 157.337C41.5754 157.039 41.6337 156.718 41.6909 156.547C41.7692 156.312 41.9133 156.098 42.062 155.949L42.1255 155.886L42.2046 155.843C47.9108 152.73 51.5453 148.584 55.7847 143.814L55.7895 143.808L57.9126 141.482C63.0587 135.882 69.7338 129.09 81.8276 121.493L81.8384 121.486L82.3784 121.167C85.2647 119.481 90.9537 116.524 99.4438 114.193L99.4477 114.192L100.951 113.799C108.513 111.852 116.828 110.245 125.458 109.415L126.811 109.287ZM42.6763 157.899H42.6802V157.898C42.6787 157.898 42.677 157.898 42.6753 157.898L42.6763 157.899Z" fill="white" stroke="white" stroke-width="1.25181"/>
<path d="M15.682 130.192C16.0146 129.911 16.4179 129.983 16.6175 130.05C16.8521 130.128 17.0656 130.272 17.2142 130.421C17.5564 130.763 17.4799 131.203 17.4095 131.414C17.3313 131.648 17.1869 131.862 17.0384 132.011L16.9964 132.053L16.9476 132.087C1.74667 142.395 -8.58547 154.797 -17.2009 165.519C-17.2262 165.587 -17.2598 165.655 -17.3092 165.719C-17.427 165.87 -17.5757 165.944 -17.6852 165.98C-17.8686 166.041 -18.073 166.034 -18.1257 166.034C-18.1671 166.034 -18.3785 166.048 -18.5817 165.946C-18.6774 165.898 -18.7477 165.838 -18.7917 165.799C-18.8343 165.76 -18.8813 165.714 -18.9206 165.675C-19.1525 165.443 -19.236 165.136 -19.236 164.88C-19.236 164.642 -19.1628 164.362 -18.9675 164.138C-10.3285 153.207 0.285126 140.642 15.682 130.192Z" fill="white" stroke="white" stroke-width="1.25181"/>
<path d="M-87.5279 125.135C-87.4256 125.145 -87.3016 125.167 -87.1812 125.215C-87.0467 125.269 -86.8876 125.365 -86.7652 125.534C-86.674 125.661 -86.6236 125.801 -86.6021 125.944C-83.4744 133.369 -77.9281 140.129 -70.1012 145.868L-69.3258 146.429C-61.2657 152.171 -51.6189 156.411 -42.5699 159.236C-33.2242 162.154 -24.5645 163.549 -19.0064 163.549H-18.3014C-18.0098 163.549 -17.7707 163.688 -17.6168 163.842C-17.4948 163.964 -17.383 164.14 -17.3414 164.353C-17.2312 164.624 -17.2151 164.906 -17.3238 165.178C-17.4121 165.399 -17.5719 165.561 -17.6549 165.644C-20.3812 168.898 -22.6214 171.623 -24.2242 173.621C-25.0267 174.622 -25.6671 175.438 -26.1275 176.045C-26.6061 176.677 -26.8506 177.032 -26.9068 177.145L-26.9078 177.144C-27.0352 177.439 -27.2475 177.747 -27.4937 178.048C-27.7604 178.374 -28.0969 178.732 -28.4781 179.113C-29.2394 179.875 -30.2211 180.768 -31.273 181.733L-31.274 181.732C-31.6376 182.094 -32.0381 182.451 -32.3658 182.735L-33.0162 183.3L-33.1646 183.446C-33.525 183.896 -34.1027 184.606 -34.2496 185.633C-34.3938 186.643 -34.1336 188.096 -32.4605 190.022C-30.5573 192.084 -27.3568 193.627 -23.1109 194.493C-19.1353 195.305 -14.298 195.512 -8.88242 195.03L-7.7916 194.924C-1.69952 194.227 5.63453 192.134 12.5834 188.857C19.5372 185.576 26.0624 181.13 30.5688 175.757L30.5775 175.747L31.4838 174.69C35.9626 169.35 39.6402 163.248 42.0912 156.385L42.0932 156.382L42.4799 155.292C44.3842 149.801 45.8084 143.704 46.4643 137.146C46.4802 136.916 46.5816 136.652 46.7768 136.457C46.8952 136.339 47.0641 136.231 47.2816 136.194C47.4529 136.166 47.6188 136.189 47.7709 136.243C47.9763 136.277 48.1972 136.376 48.3666 136.545C48.485 136.663 48.594 136.833 48.6303 137.05C48.6587 137.22 48.6347 137.386 48.5805 137.537C47.8685 144.594 46.453 151.319 44.1449 157.178L44.144 157.177C41.3044 164.805 37.394 171.567 32.227 177.096C27.5677 182.736 20.7885 187.366 13.6234 190.737C6.46369 194.107 -1.12664 196.242 -7.45761 196.871C-9.81289 197.407 -12.1563 197.406 -14.2477 197.406C-23.1236 197.406 -30.0348 195.282 -33.7359 191.396L-33.7437 191.388L-33.7516 191.379C-35.1276 189.82 -35.9608 188.2 -36.109 186.57C-36.2587 184.922 -35.6999 183.348 -34.4605 181.918L-34.4459 181.901L-34.2457 181.701L-34.2447 181.699L-34.2428 181.698L-34.2389 181.694L-34.2379 181.693L-34.2359 181.692L-34.233 181.689L-34.232 181.687L-34.2301 181.686L-34.2281 181.684L-34.2271 181.682L-34.2252 181.681L-34.2232 181.679L-34.2223 181.677L-34.2203 181.676L-34.2193 181.675L-34.2184 181.673L-34.2164 181.672L-34.2154 181.671L-34.2144 181.669L-34.2125 181.668L-34.2115 181.667L-34.2105 181.665L-34.2086 181.664L-34.2047 181.66L-34.2037 181.658L-34.2018 181.657L-34.1978 181.653L-34.1969 181.651L-34.1949 181.651L-34.1939 181.649L-34.192 181.648L-34.191 181.646L-34.1891 181.645L-34.1881 181.643L-34.1861 181.642L-34.1852 181.64L-34.1832 181.639L-34.1822 181.637L-34.1803 181.636L-34.1725 181.628L-34.1715 181.626L-34.1695 181.625L-34.1676 181.623L-34.1666 181.621L-34.1646 181.62L-34.1529 181.609L-34.1519 181.607L-34.15 181.606L-34.1324 181.588L-34.1314 181.586L-34.1295 181.584L-34.1275 181.583L-34.1197 181.575L-34.1187 181.573L-34.1168 181.571L-34.1148 181.57L-34.0699 181.526L-34.068 181.523L-34.066 181.521L-34.0631 181.519L-34.0553 181.511C-34.0546 181.51 -34.054 181.509 -34.0533 181.508C-34.0526 181.507 -34.0511 181.507 -34.0504 181.506L-34.0445 181.5C-34.0438 181.499 -34.0433 181.498 -34.0426 181.497C-34.0418 181.496 -34.0404 181.496 -34.0396 181.495L-34.0357 181.491C-34.035 181.491 -34.0345 181.489 -34.0338 181.488C-34.033 181.488 -34.0316 181.487 -34.0309 181.486L-34.0201 181.476C-34.0194 181.475 -34.0189 181.474 -34.0182 181.473C-34.0174 181.472 -34.016 181.472 -34.0152 181.471L-34.0016 181.457C-34.0008 181.456 -34.0004 181.455 -33.9996 181.454C-33.9988 181.453 -33.9975 181.453 -33.9967 181.452L-33.9801 181.436C-33.9793 181.435 -33.9789 181.434 -33.9781 181.433C-33.9773 181.432 -33.976 181.432 -33.9752 181.431C-33.9744 181.43 -33.974 181.429 -33.9732 181.428C-33.9724 181.427 -33.9711 181.427 -33.9703 181.426L-33.9527 181.408C-33.9519 181.408 -33.9516 181.406 -33.9508 181.405C-33.95 181.405 -33.9486 181.404 -33.9478 181.403L-33.9449 181.401C-33.9441 181.4 -33.9437 181.398 -33.943 181.398C-33.9422 181.397 -33.9408 181.396 -33.94 181.396L-33.9215 181.377C-33.9207 181.376 -33.9203 181.375 -33.9195 181.374C-33.9187 181.373 -33.9174 181.373 -33.9166 181.372L-33.9 181.356C-33.8992 181.355 -33.8988 181.353 -33.898 181.353C-33.8972 181.352 -33.8959 181.352 -33.8951 181.351L-33.8863 181.342C-33.8855 181.341 -33.8852 181.34 -33.8844 181.339C-33.8836 181.338 -33.8822 181.338 -33.8814 181.337L-33.8639 181.319C-33.863 181.319 -33.8627 181.317 -33.8619 181.317L-33.8531 181.308C-33.8523 181.307 -33.851 181.307 -33.8502 181.306L-33.8268 181.282C-33.8258 181.281 -33.8248 181.279 -33.8238 181.278L-33.818 181.273C-33.817 181.272 -33.8151 181.271 -33.8141 181.27L-33.7965 181.252C-33.7955 181.251 -33.7946 181.249 -33.7935 181.248L-33.7906 181.245C-33.7896 181.244 -33.7877 181.243 -33.7867 181.242L-33.7779 181.234C-33.7769 181.232 -33.776 181.231 -33.775 181.23C-33.7739 181.229 -33.7721 181.228 -33.7711 181.227L-33.7652 181.221C-33.7642 181.22 -33.7634 181.218 -33.7623 181.217C-33.7613 181.216 -33.7594 181.215 -33.7584 181.214L-33.7525 181.208C-33.7515 181.207 -33.7507 181.205 -33.7496 181.204C-33.7485 181.203 -33.7468 181.202 -33.7457 181.201L-33.7428 181.198C-33.7417 181.197 -33.7409 181.196 -33.7398 181.194C-33.7388 181.193 -33.737 181.193 -33.7359 181.192L-33.733 181.189C-33.7319 181.188 -33.7312 181.186 -33.7301 181.185C-33.729 181.184 -33.7272 181.183 -33.7262 181.182L-33.7232 181.179C-33.7222 181.178 -33.7214 181.176 -33.7203 181.175C-33.7192 181.174 -33.7175 181.173 -33.7164 181.172L-33.6998 181.155C-33.6987 181.154 -33.698 181.153 -33.6969 181.151C-33.6957 181.15 -33.6941 181.15 -33.693 181.149C-33.6918 181.147 -33.6912 181.146 -33.69 181.145C-33.6889 181.144 -33.6872 181.143 -33.6861 181.142C-33.685 181.141 -33.6843 181.139 -33.6832 181.138C-33.6821 181.137 -33.6804 181.136 -33.6793 181.135C-33.6782 181.134 -33.6775 181.132 -33.6764 181.131C-33.6752 181.13 -33.6736 181.129 -33.6725 181.128C-33.6713 181.127 -33.6707 181.125 -33.6695 181.124C-33.6684 181.123 -33.6668 181.122 -33.6656 181.121L-33.648 181.104C-33.6469 181.102 -33.6463 181.101 -33.6451 181.1C-33.644 181.099 -33.6423 181.098 -33.6412 181.097L-33.6373 181.093C-33.6362 181.092 -33.6355 181.09 -33.6344 181.089C-33.6332 181.088 -33.6316 181.087 -33.6305 181.086L-33.6266 181.082C-33.6254 181.081 -33.6247 181.079 -33.6236 181.078C-33.6225 181.077 -33.6209 181.076 -33.6197 181.075L-33.6158 181.071C-33.6147 181.07 -33.614 181.069 -33.6129 181.068C-33.6117 181.066 -33.6101 181.066 -33.609 181.065L-33.6012 181.057C-33.6001 181.056 -33.5993 181.054 -33.5982 181.053C-33.5971 181.052 -33.5955 181.051 -33.5943 181.05L-33.5865 181.042C-33.5854 181.041 -33.5847 181.039 -33.5836 181.038C-33.5824 181.037 -33.5808 181.036 -33.5797 181.035L-33.568 181.024C-33.5668 181.022 -33.5662 181.021 -33.565 181.02L-33.5611 181.016C-33.56 181.015 -33.5584 181.014 -33.5572 181.013L-33.5299 180.985C-33.5287 180.984 -33.5281 180.983 -33.5269 180.982L-33.4918 180.946C-33.4905 180.945 -33.4882 180.944 -33.4869 180.943L-33.4596 180.915C-33.4582 180.914 -33.457 180.912 -33.4557 180.91C-33.4543 180.909 -33.4521 180.908 -33.4508 180.906L-33.4352 180.891C-33.4338 180.889 -33.4326 180.887 -33.4312 180.886C-33.4299 180.884 -33.4277 180.883 -33.4264 180.882L-33.4185 180.874C-33.4172 180.873 -33.416 180.871 -33.4146 180.869C-33.4133 180.868 -33.4111 180.867 -33.4098 180.865L-33.3893 180.845C-33.3879 180.843 -33.3867 180.841 -33.3853 180.84C-33.3839 180.839 -33.3819 180.837 -33.3805 180.836L-33.3551 180.811C-33.3537 180.809 -33.3526 180.807 -33.3512 180.806C-33.3497 180.804 -33.3477 180.803 -33.3463 180.802C-33.3448 180.8 -33.3438 180.798 -33.3424 180.797C-33.341 180.796 -33.3389 180.795 -33.3375 180.793L-33.3023 180.758C-33.3009 180.756 -33.2999 180.754 -33.2984 180.753C-33.297 180.752 -33.295 180.751 -33.2935 180.749C-33.2921 180.748 -33.2911 180.746 -33.2896 180.744C-33.2882 180.743 -33.2862 180.742 -33.2848 180.74L-33.2711 180.727C-33.2696 180.725 -33.2686 180.723 -33.2672 180.722C-33.2657 180.72 -33.2637 180.719 -33.2623 180.718L-33.2574 180.713C-33.256 180.712 -33.255 180.71 -33.2535 180.708C-33.2521 180.707 -33.2501 180.706 -33.2486 180.704L-33.2437 180.699C-33.2423 180.698 -33.2413 180.696 -33.2398 180.694C-33.2384 180.693 -33.2364 180.692 -33.235 180.691L-33.2252 180.681C-33.2237 180.679 -33.2227 180.677 -33.2213 180.676C-33.2198 180.674 -33.2179 180.673 -33.2164 180.672L-33.2066 180.662C-33.2052 180.661 -33.2042 180.659 -33.2027 180.657C-33.2013 180.656 -33.1993 180.655 -33.1978 180.653L-33.1783 180.634C-33.1769 180.632 -33.1759 180.63 -33.1744 180.629C-33.1729 180.628 -33.171 180.627 -33.1695 180.625L-33.0572 180.513C-33.0556 180.511 -33.054 180.509 -33.0523 180.507C-33.0507 180.505 -33.0482 180.504 -33.0465 180.502L-33.0318 180.487C-33.0301 180.486 -33.0286 180.483 -33.0269 180.482C-33.0253 180.48 -33.0228 180.478 -33.0211 180.477L-33.0064 180.462C-33.0048 180.46 -33.0032 180.458 -33.0016 180.456C-32.9998 180.454 -32.9974 180.453 -32.9957 180.451L-32.9908 180.446C-32.9891 180.445 -32.9877 180.442 -32.9859 180.441C-32.9842 180.439 -32.9818 180.437 -32.9801 180.436L-32.9596 180.415C-32.9578 180.413 -32.9564 180.411 -32.9547 180.409C-32.953 180.408 -32.9505 180.406 -32.9488 180.404L-32.9439 180.4C-32.9422 180.398 -32.9408 180.395 -32.9391 180.394C-32.9373 180.392 -32.935 180.391 -32.9332 180.389C-32.9314 180.387 -32.9301 180.385 -32.9283 180.383C-32.9266 180.381 -32.9242 180.38 -32.9225 180.378L-32.858 180.314C-32.8562 180.312 -32.8549 180.31 -32.8531 180.308C-32.8513 180.306 -32.849 180.305 -32.8473 180.303L-32.7916 180.247C-32.7898 180.245 -32.7885 180.243 -32.7867 180.241C-32.7849 180.24 -32.7826 180.238 -32.7809 180.236L-32.7691 180.225C-32.7673 180.223 -32.766 180.221 -32.7643 180.219C-32.7625 180.217 -32.7602 180.216 -32.7584 180.214L-32.735 180.191C-32.7332 180.189 -32.7318 180.186 -32.7301 180.185C-32.7283 180.183 -32.726 180.182 -32.7242 180.18L-32.6715 180.127C-32.6697 180.125 -32.6684 180.123 -32.6666 180.121L-32.6549 180.109C-32.6529 180.108 -32.65 180.106 -32.648 180.104L-32.5953 180.051C-32.5933 180.049 -32.5914 180.046 -32.5894 180.044C-32.5875 180.042 -32.5846 180.04 -32.5826 180.038L-32.5592 180.015C-32.5572 180.013 -32.5553 180.01 -32.5533 180.008C-32.5513 180.006 -32.5485 180.004 -32.5465 180.002L-32.5348 179.99C-32.5327 179.988 -32.5309 179.986 -32.5289 179.984C-32.5269 179.981 -32.5241 179.98 -32.5221 179.978L-32.5162 179.972C-32.5142 179.97 -32.5124 179.967 -32.5103 179.965C-32.5083 179.963 -32.5055 179.961 -32.5035 179.959L-32.4977 179.953C-32.4956 179.951 -32.4939 179.948 -32.4918 179.946C-31.779 179.234 -30.8325 178.377 -30.0553 177.643C-29.6606 177.27 -29.3075 176.927 -29.0338 176.638C-28.7423 176.329 -28.5965 176.138 -28.5553 176.056C-28.4628 175.871 -28.2773 175.6 -28.0582 175.297C-27.8289 174.98 -27.5318 174.587 -27.1871 174.143C-26.4973 173.253 -25.6074 172.142 -24.6705 170.984C-23.1917 169.158 -21.6024 167.222 -20.4762 165.835C-26.3316 165.647 -34.5811 164.222 -43.3619 161.467C-52.5194 158.593 -62.2973 154.261 -70.5748 148.337L-71.3717 147.758C-79.5474 141.715 -85.4513 134.755 -88.6773 126.69L-88.0963 126.457H-88.7223V126.28C-88.7221 126.039 -88.6224 125.794 -88.523 125.628C-88.468 125.536 -88.3891 125.429 -88.2828 125.337C-88.1827 125.25 -87.9979 125.126 -87.7437 125.126L-87.5279 125.135Z" fill="white" stroke="white" stroke-width="1.25181"/>
<path d="M170.869 140.921C171.072 140.896 171.243 140.952 171.359 141.01C171.458 141.06 171.549 141.129 171.623 141.193L171.786 141.348L171.791 141.353L174.599 144.229C181.008 150.805 186.351 156.444 189.663 161.334C191.557 164.131 192.825 166.737 193.226 169.176C193.632 171.642 193.146 173.916 191.59 175.996L191.591 175.997C189.895 178.352 186.888 180.172 183.08 181.404C179.259 182.64 174.566 183.306 169.405 183.306H168.51C159.792 183.128 150.376 181.172 141.146 177.445L141.028 177.397L140.938 177.307C140.875 177.244 140.7 177.079 140.6 176.88C140.542 176.764 140.486 176.593 140.511 176.39C140.538 176.18 140.642 176.014 140.762 175.893L140.924 175.738C140.998 175.674 141.09 175.605 141.189 175.555C141.305 175.497 141.475 175.441 141.678 175.466C141.819 175.484 141.939 175.538 142.04 175.607C150.943 179.089 160.007 180.999 168.536 181.173H168.535C173.592 181.261 178.195 180.649 181.91 179.504C185.64 178.355 188.404 176.69 189.878 174.726L190.093 174.423C191.123 172.897 191.406 171.215 191.042 169.307C190.647 167.243 189.49 164.909 187.66 162.261C183.997 156.963 177.786 150.618 170.193 142.936L170.638 142.496H170.462L170.196 142.762C169.854 142.42 169.93 141.98 170.001 141.769C170.004 141.759 170.009 141.75 170.012 141.74V140.972L170.294 141.258C170.32 141.228 170.345 141.199 170.372 141.172L170.471 141.086C170.579 141.005 170.711 140.941 170.869 140.921Z" fill="white" stroke="white" stroke-width="1.25181"/>
</g>
<defs>
<clipPath id="clip0_224_141">
<rect width="193" height="193" rx="10.3393" fill="white"/>
</clipPath>
</defs>
</svg>
