<svg width="193" height="193" viewBox="0 0 193 193" fill="none" xmlns="http://www.w3.org/2000/svg">
<g clip-path="url(#clip0_224_46)">
<path d="M5.78127 84.785L8.51242 84.9801L11.6337 84.4924L14.6575 83.6145L17.6813 82.9317L20.3149 82.5416L22.5583 82.444L25.5821 82.6391L27.8255 83.2244L29.4837 83.8096L31.6297 84.5899L33.678 85.858L35.6288 87.3211L37.6772 89.0768L37.5797 87.9063L36.9944 85.4678L36.7018 82.444L36.7993 80.103L37.3846 76.494L38.8477 72.6899L40.3108 70.4465L42.0665 67.9104L43.5297 65.8621L44.7002 63.7161L45.3829 61.6678L45.4805 59.912L45.2854 58.7416L45.8706 58.2538L46.8461 60.8875L44.4075 67.3252L41.4813 71.8121L40.0182 74.0555L38.9452 77.3719L38.36 79.6153L38.1649 83.1268L38.4575 85.3703L38.9452 87.8088L39.5305 90.3449L39.9206 92.5883L37.8723 91.5153L35.0436 88.5891L30.9469 86.053L27.5329 84.8826L23.8264 84.1022L20.7051 84.0047L17.3887 84.1022L14.3649 85.0776L9.58537 85.9555L6.5616 85.6629L5.48865 85.2727L5.78127 84.785Z" fill="white"/>
<path d="M76.2059 130.434L73.7673 133.361L70.9386 136.97L67.9149 136.287L60.9894 132.58L56.5026 130.044L51.1378 126.63L47.2362 123.802L44.3099 121.168L42.3591 118.242L40.4083 114.73L39.628 112.487L42.6517 116.291L46.4558 119.705L49.2845 121.753L52.0157 123.509L55.0394 124.874L58.6485 126.435L62.6476 127.898L66.4518 128.874L70.5485 129.654L74.7427 130.239H76.3034L76.2059 130.434Z" fill="white"/>
<path d="M22.8509 82.6392C27.0452 82.8343 31.0443 84.1999 34.5558 86.4433C27.7279 81.5663 21.2902 82.054 16.3156 83.1269C18.5591 82.7368 20.705 82.5417 22.8509 82.6392Z" fill="#1B61C4"/>
<path d="M164.676 51.8161C162.14 49.9628 159.603 48.3046 157.067 46.8415C133.853 33.6734 109.077 41.6718 95.6166 57.571C80.6928 75.2259 84.8871 94.2465 64.6961 98.5383C56.5026 100.294 50.3575 97.7579 46.7485 95.4169C50.6501 93.9538 60.8919 85.4678 57.8682 71.4218C54.4542 55.9128 44.31 55.23 45.1878 57.9612C47.4313 64.4964 40.5059 67.7153 37.8723 75.5186C38.1649 74.6407 38.555 73.8604 39.0427 73.08C41.0911 69.471 44.1149 66.6423 45.578 62.7407C46.0657 61.4726 46.2608 60.1071 45.9682 58.7415C46.3583 60.0095 46.2608 61.4726 45.8706 62.8382C44.7001 66.8374 41.6764 69.8612 39.8231 73.4702C36.7993 79.1276 37.7747 86.1505 39.7255 92.1005L38.2624 90.6374C32.3124 84.3948 22.8509 82.0538 14.6575 84.3948C11.9263 85.2727 8.90256 86.053 6.07387 85.1751C8.90256 85.8579 11.8288 84.9801 14.4624 83.9071C15.1452 83.712 15.828 83.5169 16.5108 83.3218C13.8772 83.9071 11.6337 84.6874 9.97552 84.8825C3.44026 85.7604 1.48944 81.6637 0.709114 84.5899C-2.21712 95.1243 16.1206 112.487 35.6288 100.879C36.3116 103.708 37.0919 106.439 38.1649 109.073C40.1157 113.657 43.5296 117.461 47.5288 120.387C57.2829 127.605 70.8411 130.337 76.5961 130.239C74.7428 132.678 72.987 134.824 71.4264 136.579C70.3534 137.75 69.378 138.725 68.5002 139.506C68.11 139.896 67.7198 140.286 67.5247 140.676C66.0616 143.602 69.8657 148.089 80.6928 147.504C81.8633 147.406 83.0338 147.309 84.3018 147.114C85.1797 146.919 86.1551 146.821 87.033 146.528C89.4715 145.943 92.0076 145.065 94.4461 143.797C97.86 142.042 101.176 139.701 104.005 136.579C106.639 133.653 108.882 130.044 110.54 125.655C117.953 121.558 120.977 113.267 132.487 106.732C134.633 105.464 137.852 103.903 142.046 102.733C146.24 101.562 151.215 100.587 156.385 100.099C160.189 99.7087 163.993 99.5137 167.699 99.7087C171.796 99.9038 175.698 100.392 179.014 101.464C181.355 102.245 183.404 103.22 184.964 104.488C187.5 85.7604 181.258 64.3013 164.676 51.8161Z" fill="#1B61C4"/>
<path d="M184.672 104.391C183.111 103.123 181.063 102.147 178.722 101.367C175.405 100.294 171.601 99.8064 167.407 99.6114C163.7 99.5138 159.896 99.6114 156.092 100.002C151.02 100.489 146.045 101.465 141.753 102.635C137.559 103.806 134.34 105.366 132.194 106.634C120.392 113.657 116.685 121.656 110.248 125.557C108.59 129.947 106.346 133.556 103.712 136.482C100.884 139.603 97.5674 142.042 94.1534 143.7C91.7149 144.968 89.1789 145.846 86.7403 146.431C85.7649 146.626 84.8871 146.821 84.0092 147.016C114.832 156.283 138.242 151.893 156.092 142.042C159.116 140.384 161.944 138.53 164.676 136.579C166.919 135.019 168.967 133.263 171.016 131.507C175.21 127.801 178.624 123.021 180.965 117.559C182.721 113.462 183.989 108.975 184.672 104.391Z" fill="#FCFFFF"/>
<path d="M171.016 131.507C168.967 133.263 166.919 134.921 164.676 136.58C170.04 138.725 175.21 139.701 179.599 139.701C185.549 139.798 190.134 138.238 191.89 135.897C194.913 131.8 189.646 126.435 180.965 117.461C178.624 123.021 175.21 127.801 171.016 131.507Z" fill="#1B61C4"/>
<path d="M116.88 139.311C115.515 137.067 115.32 134.141 116.295 131.02C120.49 117.559 140.388 104.781 157.458 104.683C167.407 104.586 173.162 109.268 173.162 115.998C172.869 125.362 162.14 136.677 148.776 142.822C143.314 145.261 137.754 146.821 132.682 147.309C132.975 147.309 133.267 147.211 133.56 147.211C140.193 146.041 147.118 143.407 153.263 139.506C159.408 135.702 164.383 130.922 167.504 125.947C169.26 123.119 170.138 120.29 170.138 117.754C170.138 111.706 164.871 107.707 155.994 107.902C141.168 108.195 124.099 119.12 120.197 130.727C119.319 133.458 119.417 135.897 120.49 137.945C122.733 142.042 128.683 143.602 135.803 142.529C145.85 140.969 156.775 134.141 161.067 126.63C162.237 124.679 162.725 122.729 162.627 120.973C162.335 116.974 158.531 114.535 152.581 114.828C142.924 115.315 131.902 122.338 128.976 129.849C128.293 131.507 128.293 133.068 128.878 134.238C130.049 136.872 133.56 138.042 138.144 137.457C144.68 136.579 151.703 132.092 154.336 127.215C154.921 126.142 155.117 125.07 155.019 124.192C154.726 122.143 152.581 120.973 149.459 121.265C144.582 121.656 139.022 125.167 137.364 128.971C137.071 129.556 137.071 130.239 137.169 130.727C137.559 131.8 138.925 132.385 140.778 132.092C143.412 131.702 146.143 129.947 147.118 127.996C147.216 127.801 147.216 127.606 147.216 127.411C147.118 127.02 146.728 126.825 146.045 126.923L144.972 127.02C143.997 127.118 143.021 127.801 142.631 128.483C142.534 128.679 142.339 128.874 142.046 128.874C141.851 128.874 141.753 128.874 141.753 128.776V128.679C142.631 126.923 145.167 125.265 147.508 124.972C149.069 124.874 150.044 125.362 150.24 126.338C150.337 126.728 150.24 127.313 149.947 127.801C149.167 129.361 147.606 130.922 145.655 132.19C143.704 133.458 141.461 134.238 139.315 134.531C136.389 134.921 134.145 134.043 133.462 132.288C133.17 131.507 133.17 130.532 133.658 129.459C134.731 126.923 137.071 124.387 140.29 122.338C143.509 120.29 147.118 119.022 150.435 118.827C154.726 118.534 157.555 120.192 157.945 123.021C158.14 124.289 157.75 125.655 156.97 127.118C155.312 130.044 152.385 132.97 148.679 135.311C144.972 137.652 140.876 139.213 136.876 139.798C131.219 140.579 126.732 139.213 125.171 135.994C124.391 134.433 124.391 132.483 125.171 130.434C128.488 121.265 142.046 112.682 153.751 112.292C160.969 111.999 165.261 115.12 165.553 119.9C165.651 121.948 164.968 124.289 163.603 126.63C161.067 130.922 156.872 135.019 151.508 138.335C146.24 141.652 140.29 143.895 134.633 144.87C126.635 145.651 119.612 143.895 116.88 139.311Z" fill="black"/>
<path d="M139.9 84.4925C140.193 81.0786 137.754 78.1523 134.535 77.8597C131.317 77.5671 128.488 80.2007 128.195 83.5171C127.903 86.931 130.341 89.8572 133.56 90.1499C136.876 90.4425 139.705 87.9064 139.9 84.4925Z" fill="white"/>
<path d="M140.388 76.6893C144.387 75.4213 148.776 77.3721 148.679 78.2499C148.679 78.9327 145.85 78.7377 140.973 80.4934C136.389 82.2491 134.535 84.1024 134.145 83.6147C133.658 82.9319 136.096 78.1524 140.388 76.6893Z" fill="#1B61C4"/>
<path d="M84.5945 147.211C84.5945 147.211 89.4715 146.334 91.715 144.968C91.715 144.968 107.419 150.625 129.561 148.479C151.703 146.334 159.408 139.701 159.408 139.701C159.408 139.701 145.265 151.211 118.929 152.088C105.468 152.186 89.7642 149.65 84.5945 147.211Z" fill="#EDEDED"/>
<path d="M71.0362 136.677C71.0362 136.677 44.8952 126.825 40.2133 114.438C40.2133 114.438 44.5051 127.898 67.2321 140.676L71.0362 136.677Z" fill="#EDEDED"/>
<path d="M99.5182 56.0106C99.5182 56.0106 149.654 20.3106 179.209 69.0811C183.306 75.0311 185.354 93.9541 185.354 93.9541C185.354 93.9541 187.11 70.5442 164.676 51.8163C155.702 43.5253 126.635 31.3327 102.347 51.1335C97.4698 54.5475 88.7887 65.3745 87.1305 71.5196C87.0329 71.4221 93.9583 60.1073 99.5182 56.0106Z" fill="#2174D8"/>
<path d="M43.8088 92.37C43.9422 92.3701 44.1 92.4088 44.2316 92.5126L44.2863 92.5604L44.3264 92.6014L44.3517 92.6464L44.3527 92.6473C44.3542 92.6498 44.3581 92.6562 44.3644 92.6659C44.3772 92.6853 44.4002 92.7192 44.4367 92.7665C44.51 92.8613 44.6368 93.0115 44.84 93.2118C45.1961 93.5626 45.786 94.0669 46.7316 94.702L47.1594 94.9823L47.1955 95.0057L47.2267 95.037C47.2629 95.0731 47.3765 95.1794 47.4367 95.33C47.5114 95.5168 47.488 95.7098 47.3986 95.8885L47.2883 96.1102H47.0412C47.0261 96.1102 47.0158 96.1117 47.0099 96.1132C47.009 96.1134 47.0078 96.1129 47.007 96.1132L46.9142 96.2069H46.5344L46.4357 96.1444C45.2 95.3536 44.4182 94.7188 43.9406 94.2606C43.7023 94.032 43.5366 93.8442 43.4269 93.7001C43.3725 93.6285 43.3287 93.5625 43.2961 93.5048C43.283 93.4816 43.2708 93.4556 43.259 93.4286C43.1733 93.304 43.1399 93.1615 43.1398 93.0389C43.1398 92.8864 43.1895 92.7012 43.3303 92.5604L43.3849 92.5126C43.5167 92.4086 43.6752 92.37 43.8088 92.37ZM47.0168 96.1044C47.0188 96.1026 47.0212 96.1008 47.0236 96.0985L47.0305 96.0917V96.0907H47.0314L47.0305 96.0897L47.0168 96.1044Z" fill="white" stroke="white" stroke-width="0.8"/>
<path d="M38.4678 89.1749C38.4678 89.2657 38.4726 89.4683 38.3252 89.6661L38.2529 89.7501C38.1777 89.8253 38.0823 89.8804 37.9707 89.9014C37.8668 89.9209 37.7785 89.9047 37.7266 89.8917C37.7002 89.8851 37.6769 89.878 37.6621 89.8731C37.6543 89.8706 37.6494 89.8685 37.6455 89.8672H37.5137L37.3975 89.753C32.7328 85.1845 28.1871 83.5425 24.0879 83.2208C19.971 82.8976 16.279 83.9022 13.2959 84.6846L13.2949 84.6837C12.0326 85.0715 10.8438 85.3701 9.83594 85.4727L9.83691 85.4737C6.32295 85.9757 4.09816 85.0691 2.61719 84.4766L2.08984 84.2803C1.93609 84.2246 1.80274 84.1793 1.68457 84.1456C1.5116 84.0961 1.41513 84.0863 1.36523 84.087C1.35228 84.104 1.33119 84.1333 1.30371 84.1837C1.27338 84.2393 1.24207 84.3062 1.20215 84.3907C1.16923 84.4603 1.13009 84.5402 1.08789 84.626C0.498399 86.7905 0.906891 89.3598 2.1543 91.9258C3.40444 94.4975 5.4827 97.0342 8.16797 99.0967L8.53809 99.3712C16.3392 105.051 26.1338 105.348 34.9346 100.049L35.0303 99.9913H35.3359L35.4102 99.9971C35.484 100.008 35.5566 100.035 35.623 100.081C35.7005 100.135 35.7465 100.2 35.7666 100.231L35.8145 100.304L35.8936 100.384L35.9199 100.493C36.6004 103.312 37.3753 106.022 38.4375 108.629H38.4365C38.5245 108.823 38.527 109.032 38.4473 109.218C38.3872 109.358 38.2879 109.47 38.1719 109.553L38.0508 109.626L37.9668 109.668H37.8721C37.6933 109.668 37.5478 109.582 37.4551 109.489C37.3813 109.415 37.3141 109.308 37.2891 109.177C36.3742 106.792 35.6316 104.326 34.9805 101.779C25.9429 106.858 15.911 106.384 7.87793 100.511L7.49023 100.223C4.61516 98.0416 2.37776 95.3102 1.03125 92.5049C-0.313122 89.704 -0.783027 86.797 -0.0654297 84.2852L-0.0634766 84.2764L-0.0605469 84.2686L0.0136719 84.0538C0.192575 83.5625 0.413994 83.1358 0.780273 82.8917L0.788086 82.8858L0.795898 82.8809L0.938477 82.8077C1.27573 82.6622 1.63804 82.6909 1.96777 82.7764C2.33916 82.8727 2.73548 83.0589 3.12012 83.251C4.45104 83.821 6.42348 84.5703 9.63574 84.1924H9.63867L9.96777 84.1485C10.7658 84.0264 11.7778 83.7675 12.8818 83.4278L12.8916 83.4239L14.0439 83.1065C16.8188 82.3557 20.1868 81.5881 23.9023 81.838C27.8862 82.1059 32.2488 83.5412 36.7197 87.3633C35.7172 82.5313 36.0614 78.7791 37.0527 75.7012C38.1233 72.3774 39.9402 69.8675 41.5488 67.6739C43.9163 64.3201 45.7084 61.9584 44.5156 58.3799L44.5107 58.3663L44.5068 58.3506C44.3982 57.9158 44.3637 57.3426 44.8076 56.8985L44.9404 56.7803C45.2664 56.5238 45.702 56.3907 46.1592 56.3438C46.6235 56.2962 47.1473 56.3326 47.6865 56.4464L47.9189 56.5001L47.9258 56.502L48.2852 56.6094C52.023 57.8216 56.453 62.3837 58.4541 71.5313L58.5928 72.2061C59.9261 79.1311 58.1443 84.715 55.4961 88.7715C52.7738 92.9415 49.1235 95.5159 46.9805 96.2813L46.9795 96.2803C46.7278 96.3845 46.4819 96.3097 46.3213 96.1758C46.1823 96.06 46.0833 95.8862 46.0605 95.6954L46.0557 95.6124L46.0703 95.4864C46.0973 95.3693 46.1569 95.2795 46.1973 95.2256C46.2542 95.1498 46.3247 95.0797 46.3682 95.0362L46.4307 94.9737L46.5137 94.9434C48.4216 94.2453 51.8436 91.8685 54.4121 87.9317C56.9697 84.0116 58.6711 78.5599 57.1846 71.7022V71.7012C55.1527 62.7074 50.8313 58.5842 47.5195 57.6641L47.5088 57.6612C46.4405 57.3325 45.8835 57.544 45.6562 57.6768C45.6542 57.6813 45.651 57.6861 45.6494 57.6924C45.645 57.7101 45.6383 57.7547 45.665 57.835L45.7891 58.2354C46.9661 62.3331 44.8347 65.1544 42.5889 68.336L42.584 68.3419C40.9736 70.5378 39.2082 72.9766 38.2061 76.2335C37.2068 79.4812 36.9587 83.5736 38.4531 89.0694L38.4678 89.1212V89.1749Z" fill="white" stroke="white" stroke-width="0.8"/>
<path d="M95.5377 56.501C108.449 41.8295 131.826 33.0307 155.993 45.668L157.163 46.2959L157.165 46.2969L158.154 46.8584C160.451 48.1897 162.673 49.6713 164.82 51.3027H164.819C180.261 62.9098 188.208 83.7398 185.067 104.451C184.422 108.871 183.26 113.119 181.659 117.035L181.333 117.814C178.873 123.521 175.425 128.353 171.179 132.006C169.12 133.868 166.965 135.532 164.817 137.094L164.818 137.095C162.07 139.155 159.129 141.018 156.192 142.683L156.191 142.682C144.324 149.448 130.893 152.879 116.393 152.879C106.115 152.879 95.257 151.215 83.9175 147.796C83.8062 147.774 83.7234 147.718 83.6754 147.677C83.6111 147.621 83.5641 147.557 83.5318 147.503C83.4884 147.431 83.444 147.33 83.4244 147.223L83.4136 147.114L83.4273 147.003C83.4515 146.901 83.5043 146.826 83.5435 146.78C83.5993 146.716 83.6644 146.669 83.7183 146.637C83.8147 146.579 83.96 146.519 84.107 146.519H84.1656L84.2213 146.535C111.258 154.607 135.333 152.944 155.703 141.595C158.613 139.945 161.429 138.1 164.151 136.156C166.29 134.601 168.422 132.952 170.455 131.113L170.459 131.109L170.836 130.772C174.711 127.254 177.866 122.739 180.209 117.398L180.529 116.649C182.104 112.877 183.25 108.691 183.885 104.333V104.332L184.019 103.383C186.647 83.4385 178.897 63.4703 164.143 52.4287L164.141 52.4277C161.717 50.5855 159.2 48.94 156.59 47.5869L156.582 47.582C132.577 34.3415 109.336 42.9417 96.524 57.5205L95.9224 58.2197C90.1154 65.0914 87.2087 72.1578 84.6734 78.4961L84.6724 78.498C82.6299 83.5072 80.7804 88.0784 77.8716 91.7051C74.9451 95.354 70.9588 98.0345 64.6783 99.3203L64.6773 99.3193C56.6167 101.045 50.4084 98.6818 46.6031 96.3691L46.2427 96.1455L46.2047 96.1221L46.1734 96.0898C46.1376 96.054 46.0228 95.9478 45.9625 95.7969C45.8879 95.6101 45.9112 95.417 46.0005 95.2383L46.0298 95.1797L46.0757 95.1338C46.1119 95.0975 46.2183 94.984 46.3687 94.9238C46.5087 94.8679 46.6522 94.8666 46.7906 94.9072L46.9273 94.9619L46.9478 94.9717L46.9664 94.9844C50.5087 97.282 56.546 99.6806 64.4156 97.9531L64.4185 97.9521L64.9713 97.8311C70.6137 96.5425 74.212 94.0566 76.8814 90.7285C79.6541 87.2717 81.4384 82.8922 83.4429 77.9053L83.4449 77.9014L84.4517 75.4834C86.8593 69.7503 89.7602 63.4089 94.9195 57.2178L94.9214 57.2148L95.5377 56.501Z" fill="white" stroke="white" stroke-width="0.8"/>
<path d="M37.7336 108.494C37.919 108.403 38.1247 108.44 38.2609 108.522C38.4178 108.616 38.5289 108.781 38.5568 108.977C43.7093 122.204 53.5415 132.91 66.965 139.892L67.6076 140.222L67.6652 140.251L67.7101 140.296L67.8058 140.399C67.8464 140.449 67.8899 140.513 67.9201 140.589C67.9762 140.729 67.9776 140.873 67.9367 141.011L67.882 141.148L67.634 141.644L67.3566 141.367C67.3477 141.367 67.3384 141.369 67.3293 141.369H67.1369L67.051 141.326C52.9439 134.174 42.6395 123.1 37.3273 109.372C37.1921 109.172 37.2306 108.934 37.3215 108.782C37.4086 108.637 37.5568 108.531 37.7336 108.494Z" fill="white" stroke="white" stroke-width="0.8"/>
<path d="M157.255 99.2562C160.721 98.9592 164.039 98.8292 167.137 99.0013L167.136 99.0023C171.271 99.1863 174.902 99.7144 178.024 100.593L178.642 100.774L178.648 100.776L179.106 100.926C181.223 101.639 183.054 102.515 184.518 103.628L184.826 103.87L184.843 103.883L184.857 103.898C184.998 104.039 185.047 104.223 185.047 104.375C185.047 104.528 184.998 104.713 184.857 104.854C184.717 104.995 184.531 105.043 184.379 105.043C184.237 105.043 184.069 105 183.933 104.882V104.883C182.522 103.754 180.524 102.797 178.205 102.024V102.023C175.128 101.062 171.461 100.483 167.105 100.386H167.103C164.044 100.301 160.762 100.365 157.388 100.642L155.936 100.775C150.986 101.26 146.034 102.231 141.762 103.396L141.761 103.395C136.934 104.747 133.848 106.482 132.403 107.349L132.404 107.35C124.85 111.999 121.272 116.154 118.252 119.466L118.253 119.467C115.917 122.096 113.827 124.487 110.443 126.378L110.258 126.482L110.069 126.387C109.996 126.351 109.95 126.337 109.932 126.332C109.93 126.332 109.929 126.332 109.928 126.331C109.879 126.331 109.783 126.329 109.694 126.299C109.627 126.277 109.534 126.231 109.461 126.136C109.424 126.088 109.399 126.037 109.384 125.987C109.288 125.805 109.323 125.612 109.356 125.513C109.403 125.374 109.488 125.249 109.575 125.161L109.615 125.12L109.666 125.093L110.243 124.765C113.066 123.089 114.967 120.924 117.167 118.449L117.17 118.445L118.346 117.157C121.195 114.056 124.893 110.293 131.592 106.085L131.599 106.08L132.238 105.707C133.925 104.752 136.965 103.244 141.355 102.038H141.357L142.189 101.821C146.377 100.743 150.981 99.8525 155.761 99.3929L157.255 99.2562ZM109.949 126.332H109.955C109.953 126.332 109.95 126.331 109.947 126.331L109.949 126.332Z" fill="white" stroke="white" stroke-width="0.8"/>
<path d="M95.0019 110.888C95.2025 110.735 95.435 110.777 95.5478 110.815C95.6865 110.861 95.8119 110.946 95.8994 111.034C96.1103 111.245 96.0617 111.515 96.0205 111.638C95.9858 111.742 95.929 111.838 95.8662 111.917L95.8017 111.989L95.7754 112.016L95.7431 112.038C87.3399 117.737 81.6272 124.593 76.8603 130.525C76.8449 130.563 76.826 130.602 76.7978 130.638C76.7244 130.733 76.6316 130.779 76.5644 130.801C76.4533 130.838 76.3304 130.835 76.3037 130.835C76.2853 130.835 76.1536 130.843 76.0273 130.78C75.968 130.75 75.9242 130.713 75.8984 130.69C75.8736 130.668 75.8464 130.641 75.8252 130.62C75.6845 130.479 75.6347 130.294 75.6347 130.141C75.6348 129.999 75.6791 129.829 75.7998 129.692C80.5843 123.638 86.4664 116.676 95.0019 110.887V110.888Z" fill="white" stroke="white" stroke-width="0.8"/>
<path d="M37.9 108.092C37.9603 108.098 38.034 108.112 38.106 108.141C38.1872 108.173 38.2848 108.231 38.3599 108.335C38.415 108.411 38.4451 108.496 38.4586 108.581C40.1857 112.677 43.2475 116.408 47.5699 119.577H47.5709L48.4322 120.192C52.797 123.212 57.9485 125.456 62.7916 126.968C67.9602 128.582 72.7471 129.352 75.816 129.352H76.2056C76.3844 129.352 76.5299 129.437 76.6226 129.53C76.6972 129.604 76.7651 129.713 76.7896 129.846C76.8497 130.003 76.8605 130.166 76.7964 130.326C76.7464 130.451 76.6587 130.545 76.6099 130.594L74.5562 133.065C73.9461 133.806 73.414 134.46 72.9703 135.013C72.5264 135.566 72.1719 136.017 71.9175 136.353C71.6516 136.704 71.5202 136.896 71.4918 136.953L71.4908 136.952C71.4171 137.122 71.2964 137.297 71.1597 137.464C71.0106 137.646 70.8233 137.845 70.6119 138.057C70.1895 138.479 69.6447 138.975 69.063 139.508L69.0621 139.507C68.8601 139.708 68.6387 139.907 68.4576 140.064L68.1002 140.373L68.0211 140.451C67.8214 140.701 67.512 141.083 67.4332 141.635C67.3563 142.173 67.491 142.961 68.4039 144.014H68.4048C69.4469 145.147 71.2074 145.999 73.5552 146.478C75.8947 146.955 78.777 147.054 82.0132 146.716L82.6519 146.635C85.8847 146.184 89.6738 145.062 93.2759 143.363C97.1197 141.549 100.723 139.093 103.211 136.127L103.216 136.12C105.918 133.033 108.134 129.467 109.579 125.423L109.58 125.42L109.794 124.818C110.846 121.783 111.633 118.413 111.996 114.788H111.998C112.008 114.649 112.067 114.492 112.184 114.374C112.256 114.302 112.359 114.236 112.493 114.214C112.598 114.197 112.699 114.209 112.791 114.242C112.912 114.264 113.041 114.324 113.14 114.423C113.212 114.495 113.278 114.598 113.3 114.732C113.317 114.834 113.304 114.931 113.273 115.021C112.879 118.924 112.094 122.646 110.817 125.891L110.818 125.892C109.246 130.117 107.079 133.866 104.216 136.932L103.717 137.512C101.159 140.382 97.6209 142.748 93.897 144.5C89.9336 146.365 85.7309 147.548 82.2222 147.898C80.911 148.197 79.6072 148.197 78.4498 148.197C73.5323 148.197 69.689 147.02 67.6255 144.854L67.6197 144.848L67.6148 144.842C66.8488 143.974 66.3808 143.068 66.2974 142.151C66.2131 141.222 66.5285 140.337 67.2222 139.536L67.232 139.526L68.315 138.443C68.7102 138.047 69.2358 137.571 69.6646 137.166C69.8827 136.96 70.0768 136.772 70.2271 136.613C70.3888 136.442 70.4641 136.341 70.483 136.303L70.5972 136.112C70.6452 136.039 70.7018 135.959 70.7623 135.875C70.8896 135.699 71.0549 135.482 71.2457 135.236C71.6278 134.743 72.1206 134.127 72.6392 133.487C73.4289 132.511 74.2731 131.479 74.8912 130.719C71.6516 130.601 67.1291 129.813 62.3209 128.304C57.0854 126.661 51.4826 124.156 46.8043 120.709H46.8033C42.273 117.361 38.9985 113.501 37.2086 109.027L37.5797 108.878H37.1793V108.781C37.1793 108.634 37.2396 108.488 37.2974 108.392C37.3298 108.338 37.3766 108.273 37.441 108.217C37.5014 108.165 37.6163 108.087 37.775 108.087L37.9 108.092Z" fill="white" stroke="white" stroke-width="0.8"/>
<path d="M180.578 116.992C180.58 116.989 180.582 116.986 180.585 116.984L180.645 116.931C180.711 116.881 180.793 116.842 180.891 116.829C181.017 116.814 181.123 116.849 181.193 116.884C181.253 116.914 181.307 116.955 181.35 116.992L181.443 117.081L181.446 117.084L184.483 120.203C187.37 123.198 189.769 125.827 191.342 128.15C192.393 129.7 193.1 131.15 193.324 132.511C193.551 133.891 193.278 135.167 192.405 136.331L192.404 136.33C191.455 137.644 189.782 138.655 187.673 139.337C185.552 140.023 182.948 140.393 180.088 140.393H179.591C174.76 140.294 169.542 139.211 164.428 137.146L164.353 137.115L164.296 137.057C164.263 137.024 164.158 136.926 164.098 136.807C164.063 136.736 164.028 136.631 164.044 136.505C164.06 136.375 164.125 136.273 164.198 136.2L164.291 136.111C164.334 136.073 164.388 136.032 164.448 136.002C164.518 135.967 164.624 135.932 164.75 135.948C164.833 135.958 164.904 135.989 164.965 136.029C169.886 137.953 174.895 139.01 179.607 139.106H179.606C182.401 139.154 184.942 138.816 186.992 138.185C189.051 137.55 190.569 136.633 191.375 135.559L191.492 135.394C192.053 134.562 192.208 133.645 192.008 132.602C191.792 131.47 191.157 130.186 190.146 128.723C188.122 125.796 184.689 122.288 180.485 118.035L180.77 117.754H180.673L180.487 117.94C180.276 117.729 180.325 117.459 180.366 117.335C180.367 117.332 180.369 117.329 180.37 117.326V116.781L180.578 116.992Z" fill="white" stroke="white" stroke-width="0.8"/>
</g>
<defs>
<clipPath id="clip0_224_46">
<rect width="193" height="193" rx="10.3393" fill="white"/>
</clipPath>
</defs>
</svg>
