<svg width="193" height="193" viewBox="0 0 193 193" fill="none" xmlns="http://www.w3.org/2000/svg">
<g clip-path="url(#clip0_226_176)">
<path d="M178.74 -12.8468C172.091 -17.7057 165.442 -22.0531 158.793 -25.889C97.9297 -60.4125 32.9745 -39.4426 -2.31616 2.24125C-41.4428 48.5283 -30.4464 98.3955 -83.3824 109.648C-104.864 114.251 -120.975 107.602 -130.437 101.464C-120.207 97.6283 -93.3558 75.3798 -101.283 38.5548C-110.234 -2.10616 -136.83 -3.89628 -134.528 3.26415C-128.646 20.398 -146.803 28.8371 -153.708 49.2954C-152.941 46.9939 -151.918 44.948 -150.639 42.9022C-145.269 33.4402 -137.341 26.0241 -133.505 15.7949C-132.227 12.4704 -131.715 8.8902 -132.482 5.30999C-131.459 8.63447 -131.715 12.4704 -132.738 16.0506C-135.807 26.5355 -143.735 34.4631 -148.593 43.9251C-156.521 58.7574 -153.964 77.1699 -148.849 92.7694L-152.685 88.9335C-168.285 72.5668 -193.09 66.4293 -214.572 72.5668C-221.732 74.8684 -229.66 76.9142 -237.076 74.6127C-229.66 76.4028 -221.988 74.1012 -215.083 71.2882C-213.293 70.7767 -211.503 70.2653 -209.713 69.7538C-216.617 71.2882 -222.499 73.334 -226.847 73.8455C-243.98 76.147 -249.095 65.4064 -251.141 73.0783C-258.813 100.697 -210.736 146.217 -159.59 115.785C-157.8 123.201 -155.754 130.362 -152.941 137.266C-147.826 149.286 -138.876 159.259 -128.391 166.931C-102.818 185.855 -67.2714 193.015 -52.1834 192.76C-57.0422 199.153 -61.6454 204.779 -65.737 209.382C-68.5501 212.451 -71.1074 215.008 -73.4089 217.054C-74.4318 218.077 -75.4548 219.1 -75.9662 220.123C-79.8022 227.795 -69.8287 239.558 -41.4427 238.024C-38.374 237.768 -35.3052 237.512 -31.9808 237.001C-29.6792 236.489 -27.1219 236.234 -24.8204 235.466C-18.4271 233.932 -11.7781 231.631 -5.3849 228.306C3.56563 223.703 12.2604 217.565 19.6766 209.382C26.5813 201.71 32.463 192.248 36.8104 180.74C56.2459 170 64.1735 148.263 94.3495 131.129C99.9756 127.804 108.415 123.713 119.411 120.644C130.407 117.575 143.45 115.018 157.003 113.739C166.977 112.716 176.95 112.205 186.668 112.716C197.408 113.228 207.638 114.506 216.332 117.319C222.47 119.365 227.84 121.923 231.932 125.247C238.581 76.147 222.214 19.8866 178.74 -12.8468Z" fill="#1B61C4"/>
<path d="M231.165 124.992C227.073 121.667 221.703 119.11 215.565 117.064C206.87 114.251 196.897 112.972 185.901 112.461C176.183 112.205 166.21 112.461 156.236 113.484C142.938 114.763 129.896 117.32 118.644 120.389C107.648 123.457 99.2084 127.549 93.5824 130.873C62.6391 149.286 52.9214 170.256 36.0433 180.485C31.6959 191.993 25.8141 201.455 18.9094 209.127C11.4933 217.31 2.79844 223.703 -6.15208 228.051C-12.5453 231.375 -19.1943 233.677 -25.5875 235.211C-28.1448 235.723 -30.4464 236.234 -32.7479 236.745C48.0626 261.04 109.438 249.532 156.236 223.703C164.164 219.356 171.58 214.497 178.74 209.382C184.622 205.291 189.992 200.688 195.363 196.084C206.359 186.367 215.31 173.836 221.447 159.515C226.05 148.775 229.375 137.011 231.165 124.992Z" fill="#FCFFFF"/>
<path d="M195.363 196.085C189.992 200.688 184.622 205.035 178.74 209.383C192.805 215.009 206.359 217.566 217.867 217.566C233.466 217.822 245.486 213.73 250.089 207.593C258.016 196.852 244.207 182.787 221.447 159.26C215.31 173.836 206.359 186.367 195.363 196.085Z" fill="#1B61C4"/>
<path d="M53.4328 216.543C49.8526 210.661 49.3411 202.989 51.8984 194.806C62.8947 159.515 115.064 126.015 159.816 125.759C185.901 125.503 200.989 137.778 200.989 155.424C200.221 179.974 172.091 209.638 137.056 225.749C122.735 232.142 108.159 236.234 94.8609 237.513C95.6281 237.513 96.3953 237.257 97.1625 237.257C114.552 234.188 132.709 227.284 148.82 217.054C164.931 207.081 177.973 194.55 186.156 181.508C190.759 174.092 193.061 166.676 193.061 160.027C193.061 144.171 179.252 133.687 155.98 134.198C117.109 134.965 72.3567 163.607 62.1276 194.039C59.826 201.199 60.0817 207.592 62.8948 212.963C68.7765 223.703 84.376 227.795 103.044 224.982C129.384 220.89 158.026 202.989 169.278 183.298C172.347 178.183 173.626 173.069 173.37 168.466C172.603 157.981 162.629 151.588 147.03 152.355C121.713 153.633 92.8151 172.046 85.1432 191.737C83.3531 196.084 83.3531 200.176 84.8875 203.245C87.9563 210.15 97.1625 213.218 109.182 211.684C126.316 209.382 144.728 197.619 151.633 184.832C153.167 182.019 153.679 179.206 153.423 176.905C152.656 171.535 147.03 168.466 138.846 169.233C126.06 170.256 111.483 179.462 107.136 189.436C106.369 190.97 106.369 192.76 106.625 194.039C107.647 196.852 111.228 198.386 116.086 197.619C122.991 196.596 130.152 191.993 132.709 186.878C132.965 186.367 132.965 185.855 132.965 185.344C132.709 184.321 131.686 183.809 129.896 184.065L127.083 184.321C124.526 184.577 121.968 186.367 120.945 188.157C120.69 188.668 120.178 189.18 119.411 189.18C118.9 189.18 118.644 189.18 118.644 188.924V188.668C120.945 184.065 127.594 179.718 133.732 178.951C137.823 178.695 140.381 179.974 140.892 182.531C141.148 183.554 140.892 185.088 140.125 186.367C138.079 190.458 133.988 194.55 128.873 197.875C123.758 201.199 117.877 203.245 112.251 204.012C104.579 205.035 98.6969 202.733 96.9068 198.13C96.1396 196.084 96.1396 193.527 97.4182 190.714C100.231 184.065 106.369 177.416 114.808 172.046C123.247 166.676 132.709 163.351 141.404 162.84C152.656 162.073 160.072 166.42 161.095 173.836C161.606 177.161 160.583 180.741 158.538 184.577C154.19 192.249 146.518 199.92 136.801 206.058C127.083 212.195 116.342 216.287 105.857 217.822C91.025 219.867 79.2614 216.287 75.1698 207.848C73.1239 203.756 73.1239 198.642 75.1698 193.271C83.8646 169.233 119.411 146.729 150.099 145.706C169.022 144.939 180.275 153.122 181.042 165.653C181.297 171.023 179.507 177.161 175.927 183.298C169.278 194.55 158.282 205.291 144.217 213.986C130.407 222.68 114.808 228.562 99.9755 231.119C79.0057 233.165 60.5932 228.562 53.4328 216.543Z" fill="black"/>
<path d="M113.785 72.823C114.552 63.8724 108.159 56.2005 99.7199 55.4334C91.2808 54.6662 83.8647 61.5709 83.0975 70.2657C82.3303 79.2162 88.7235 86.8881 97.1626 87.6553C105.857 88.4224 113.274 81.7735 113.785 72.823Z" fill="white"/>
<path d="M115.064 52.3649C125.549 49.0404 137.056 54.155 136.801 56.4566C136.801 58.2467 129.384 57.7352 116.598 62.3383C104.579 66.9415 99.7198 71.8003 98.6969 70.5217C97.4183 68.7316 103.812 56.2008 115.064 52.3649Z" fill="#1B61C4"/>
<path d="M7.91297 -1.8499C7.91297 -1.8499 139.358 -95.4469 216.844 32.4178C227.585 48.0173 232.955 97.6288 232.955 97.6288C232.955 97.6288 237.558 36.2538 178.74 -12.8463C155.213 -34.5833 79.0058 -66.5494 15.3291 -14.6364C2.54268 -5.68583 -20.2173 22.7001 -24.5647 38.8111C-24.8204 38.5554 -6.6636 8.89073 7.91297 -1.8499Z" fill="#2174D8"/>
<path d="M-3.0166 0.645081C30.8214 -38.5661 93.0993 -62.2616 157.311 -27.7797L158.84 -26.9477L158.842 -26.9467L160.139 -26.2192C166.605 -22.5497 172.846 -18.4288 178.86 -13.8578L179.803 -13.143C219.535 17.3205 239.934 71.3454 231.784 125.086C229.986 137.412 226.647 149.227 222.022 160.018L222.021 160.019C215.595 174.928 206.592 187.54 195.516 197.071C190.128 201.944 184.488 206.3 178.859 210.394L178.86 210.395C171.674 215.785 163.979 220.658 156.289 225.015L156.288 225.014C125.245 242.716 90.1028 251.693 52.1543 251.693C25.2499 251.693 -3.18027 247.338 -32.8789 238.382C-33.0877 238.349 -33.2468 238.244 -33.3457 238.158C-33.4706 238.05 -33.5668 237.92 -33.6367 237.803C-33.7497 237.615 -33.8552 237.358 -33.8799 237.108L-33.8857 237.002L-33.8789 236.902C-33.8519 236.678 -33.7385 236.508 -33.6484 236.404C-33.5402 236.279 -33.4105 236.183 -33.2939 236.113C-33.0787 235.984 -32.774 235.864 -32.4922 235.864H-32.4004L-32.3135 235.89C38.6523 257.078 101.891 252.722 155.416 222.903C163.063 218.57 170.459 213.724 177.604 208.621L179.71 207.077C184.619 203.445 189.497 199.598 194.176 195.365L194.182 195.359L195.176 194.47C205.384 185.2 213.688 173.314 219.851 159.264H219.852L220.276 158.282C224.635 148.101 227.796 136.743 229.522 124.902V124.9L229.703 123.652C237.101 70.8154 216.723 17.7032 177.598 -11.5776L177.595 -11.5805C171.224 -16.422 164.605 -20.7493 157.738 -24.31L157.73 -24.3139L157.724 -24.3178C94.0858 -59.4194 32.4737 -36.1521 -1.05176 2.74664L-1.83789 3.66852C-17.1105 21.7411 -24.7516 40.3254 -31.3994 56.9449L-31.4014 56.9488C-36.7626 70.0965 -41.5899 82.0165 -49.1699 91.4673C-56.7779 100.953 -67.1382 107.932 -83.5127 111.285L-83.5137 111.284C-105.194 115.928 -121.725 109.215 -131.538 103.017L-131.597 102.98L-131.646 102.93C-131.754 102.823 -131.984 102.605 -132.104 102.304C-132.247 101.947 -132.211 101.568 -132.02 101.185L-131.974 101.094L-131.902 101.022L-131.801 100.922C-131.68 100.807 -131.502 100.654 -131.276 100.564C-130.964 100.439 -130.634 100.451 -130.3 100.585L-130.156 100.649L-130.125 100.665L-130.096 100.684C-120.738 106.754 -104.797 113.084 -84.0283 108.525L-84.0225 108.524L-82.5654 108.206C-67.6846 104.807 -58.1664 98.2403 -51.1055 89.4371C-43.7899 80.3163 -39.09 68.7729 -33.8398 55.7115L-33.8379 55.7047L-31.1982 49.3677C-24.8894 34.3453 -17.3062 17.7687 -3.82031 1.58551L-3.81641 1.5816L-3.0166 0.645081Z" fill="white" stroke="white" stroke-width="1.25181"/>
<path d="M157.371 112.123C167.156 111.224 176.495 110.802 185.168 111.284L185.167 111.285C196.349 111.783 206.107 113.242 214.434 115.675L215.235 115.913L215.245 115.916L216.439 116.309C222.158 118.236 227.054 120.61 230.909 123.639L231.303 123.954L231.329 123.975L231.352 123.997L231.446 124.104C231.647 124.36 231.727 124.675 231.727 124.951C231.727 125.267 231.624 125.634 231.352 125.905C231.08 126.177 230.714 126.28 230.398 126.28C230.101 126.28 229.76 126.187 229.495 125.95V125.951C225.742 122.949 220.454 120.422 214.356 118.389L213.59 118.153C205.633 115.757 196.222 114.316 185.12 114.069H185.116C175.933 113.814 165.986 114.069 155.787 115.089H155.786C142.783 116.364 129.776 118.913 118.556 121.973L118.557 121.974C105.841 125.534 97.7103 130.109 93.9047 132.393C74.0415 144.617 64.6301 155.556 56.7084 164.244C50.5802 171.138 45.1455 177.353 36.3481 182.27L36.059 182.431L35.7631 182.283C35.5448 182.174 35.3958 182.127 35.3158 182.107C35.2782 182.097 35.2554 182.094 35.2475 182.093C35.14 182.093 34.9201 182.094 34.726 182.029C34.6015 181.988 34.4402 181.907 34.3139 181.744C34.2449 181.656 34.2015 181.56 34.1742 181.464C33.9661 181.119 34.0309 180.73 34.1068 180.502C34.205 180.208 34.3892 179.934 34.5775 179.746L34.641 179.683L34.7201 179.64C43.0491 175.097 48.3526 169.043 54.4994 162.128L54.5043 162.122L57.5824 158.749C65.042 150.631 74.7077 140.797 92.226 129.792L92.2367 129.785L92.559 130.321L92.2377 129.785C96.1101 127.462 104.601 122.832 117.71 119.233L117.715 119.232L119.893 118.661C130.854 115.84 142.904 113.511 155.408 112.309L157.371 112.123ZM35.267 182.094H35.2748V182.093C35.2714 182.093 35.2678 182.093 35.2641 182.093L35.267 182.094Z" fill="white" stroke="white" stroke-width="1.25181"/>
<path d="M-153.676 135.117C-153.548 135.13 -153.396 135.157 -153.251 135.215C-153.092 135.279 -152.911 135.39 -152.773 135.582C-152.663 135.734 -152.603 135.908 -152.582 136.089C-148.166 146.589 -140.437 156.168 -129.594 164.357L-128.532 165.148L-127.404 165.964C-115.678 174.318 -101.651 180.482 -88.5024 184.587C-74.9244 188.826 -62.3304 190.855 -54.229 190.855H-53.2065C-52.8751 190.855 -52.5954 191.014 -52.4116 191.198C-52.2592 191.351 -52.1254 191.569 -52.0835 191.828C-51.9392 192.172 -51.9208 192.512 -52.0493 192.833C-52.1619 193.114 -52.3723 193.322 -52.4868 193.435C-56.4419 198.156 -59.6933 202.11 -62.02 205.011C-63.1852 206.463 -64.1163 207.65 -64.7866 208.534C-65.4698 209.436 -65.8433 209.973 -65.9429 210.169C-66.1104 210.566 -66.4048 210.995 -66.7632 211.433C-67.1416 211.895 -67.6212 212.408 -68.1714 212.958C-69.2704 214.057 -70.6895 215.348 -72.2182 216.749L-72.2192 216.748C-72.7418 217.269 -73.3216 217.785 -73.7983 218.198C-74.0516 218.418 -74.2644 218.599 -74.4272 218.739L-74.7563 219.031L-74.9878 219.262C-75.5089 219.912 -76.3998 220.998 -76.6255 222.577C-76.8489 224.141 -76.4313 226.327 -73.9712 229.161L-73.7016 229.446C-70.859 232.363 -66.2476 234.523 -60.2417 235.749C-54.4403 236.933 -47.3929 237.233 -39.5141 236.532L-37.9272 236.379C-29.0533 235.364 -18.3811 232.317 -8.27293 227.549C1.84015 222.778 11.3456 216.306 17.9185 208.469L17.9273 208.459L18.5903 207.693C25.4048 199.74 30.9994 190.6 34.687 180.274L34.688 180.271L35.2515 178.685C38.0213 170.699 40.0925 161.832 41.0464 152.293C41.0627 152.022 41.1838 151.7 41.4185 151.465C41.5567 151.327 41.7504 151.203 41.9976 151.162C42.1996 151.128 42.3988 151.158 42.5864 151.229C42.837 151.264 43.1169 151.383 43.3267 151.593C43.465 151.731 43.5882 151.925 43.6294 152.172C43.6632 152.375 43.6329 152.574 43.5611 152.763C42.5312 162.999 40.4786 172.744 37.1372 181.226C33.0261 192.271 27.3676 202.053 19.896 210.046C13.1703 218.19 3.36994 224.885 -7.00438 229.768C-17.3732 234.647 -28.3615 237.737 -37.5141 238.643C-40.9027 239.418 -44.2798 239.417 -47.3247 239.417C-60.1742 239.417 -70.1052 236.339 -75.396 230.784L-75.4048 230.775L-75.4126 230.767C-77.3846 228.532 -78.5553 226.237 -78.7632 223.952C-78.9727 221.648 -78.1949 219.438 -76.4389 217.412L-76.4243 217.394L-76.1079 217.078L-76.1059 217.077L-76.105 217.075L-76.0141 216.984C-76.0134 216.984 -76.012 216.983 -76.0112 216.982C-76.0104 216.982 -76.0101 216.98 -76.0093 216.979L-75.9057 216.876C-75.9049 216.875 -75.9036 216.875 -75.9028 216.874L-75.894 216.865C-75.893 216.864 -75.8921 216.862 -75.8911 216.861L-75.8647 216.835C-75.8637 216.834 -75.8619 216.833 -75.8608 216.832C-75.8598 216.831 -75.8589 216.829 -75.8579 216.828L-75.8491 216.819C-75.8481 216.818 -75.8463 216.817 -75.8452 216.816C-75.8442 216.815 -75.8433 216.813 -75.8423 216.812L-75.8169 216.787C-75.8158 216.786 -75.8141 216.785 -75.813 216.784C-75.8119 216.783 -75.8111 216.781 -75.81 216.78L-75.8003 216.77C-75.7992 216.769 -75.7975 216.769 -75.7964 216.768C-75.7953 216.766 -75.7946 216.765 -75.7934 216.764L-75.6245 216.595C-75.6232 216.593 -75.621 216.592 -75.6196 216.591C-75.6183 216.589 -75.617 216.587 -75.6157 216.586L-75.48 216.45C-75.4785 216.449 -75.4765 216.448 -75.4751 216.446C-75.4736 216.445 -75.4726 216.443 -75.4712 216.441L-75.4389 216.409C-75.4375 216.408 -75.4355 216.407 -75.4341 216.405C-75.4326 216.404 -75.4316 216.402 -75.4302 216.4L-75.3872 216.357C-75.3857 216.356 -75.3838 216.355 -75.3823 216.353C-75.3808 216.352 -75.3799 216.35 -75.3784 216.349L-75.3198 216.29C-75.3182 216.288 -75.3156 216.287 -75.3139 216.285C-75.3123 216.283 -75.3107 216.281 -75.3091 216.279L-75.2485 216.219C-75.2468 216.217 -75.2444 216.216 -75.2427 216.214C-75.2409 216.212 -75.2395 216.21 -75.2378 216.208L-75.2329 216.203C-75.2312 216.201 -75.2288 216.2 -75.227 216.198C-75.2253 216.196 -75.2239 216.194 -75.2222 216.192L-75.0171 215.987C-75.0153 215.985 -75.013 215.984 -75.0112 215.982C-75.0094 215.981 -75.0081 215.978 -75.0063 215.977L-74.9946 215.965C-74.9927 215.963 -74.9897 215.961 -74.9878 215.959C-74.9858 215.957 -74.9839 215.954 -74.9819 215.952L-74.9106 215.881C-74.9086 215.879 -74.9058 215.877 -74.9038 215.875C-74.9018 215.873 -74.9 215.87 -74.8979 215.868L-74.647 215.617C-74.6448 215.615 -74.6422 215.613 -74.6401 215.611C-74.638 215.609 -74.6364 215.607 -74.6343 215.604L-74.5796 215.55C-74.5773 215.547 -74.5741 215.545 -74.5718 215.543C-74.5695 215.541 -74.5672 215.537 -74.5649 215.535L-74.2671 215.237C-74.2646 215.235 -74.2617 215.233 -74.2593 215.23C-74.2568 215.228 -74.2549 215.225 -74.2524 215.223L-74.2056 215.176C-74.2031 215.173 -74.2002 215.171 -74.1977 215.169C-74.1953 215.166 -74.1933 215.164 -74.1909 215.161L-74.1518 215.122C-74.1492 215.119 -74.1457 215.117 -74.1431 215.114C-74.1404 215.112 -74.1379 215.108 -74.1352 215.105L-74.0561 215.026C-74.0535 215.024 -74.05 215.021 -74.0473 215.018C-74.0447 215.016 -74.0422 215.012 -74.0395 215.01L-73.9497 214.92C-73.9469 214.917 -73.9437 214.915 -73.9409 214.912C-73.9381 214.909 -73.9359 214.906 -73.9331 214.903C-73.9303 214.9 -73.9271 214.898 -73.9243 214.895C-73.9215 214.893 -73.9193 214.889 -73.9165 214.887L-73.5962 214.566C-72.5656 213.536 -71.2017 212.301 -70.0669 211.229C-69.4934 210.688 -68.9766 210.186 -68.5737 209.76C-68.1528 209.314 -67.9124 209.008 -67.8315 208.847C-67.7092 208.602 -67.4542 208.226 -67.1343 207.784C-66.8042 207.328 -66.3747 206.762 -65.8755 206.118C-64.8765 204.83 -63.5871 203.22 -62.228 201.541C-59.9228 198.693 -57.4267 195.653 -55.7827 193.624C-64.2747 193.429 -76.4716 191.368 -89.4839 187.284C-103.179 182.986 -117.823 176.438 -130.041 167.435L-130.041 167.435C-141.873 158.689 -150.399 148.63 -155.056 136.988L-154.475 136.755H-155.101V136.5C-155.101 136.218 -154.981 135.913 -154.852 135.698C-154.782 135.582 -154.686 135.452 -154.561 135.344C-154.442 135.241 -154.237 135.106 -153.963 135.106L-153.676 135.117Z" fill="white" stroke="white" stroke-width="1.25181"/>
<path d="M221.305 158.023C221.529 157.995 221.719 158.056 221.855 158.125C221.974 158.184 222.085 158.268 222.178 158.349L222.401 158.561L222.406 158.566L226.483 162.741C235.782 172.283 243.516 180.447 248.305 187.518C251.044 191.562 252.859 195.302 253.431 198.784C254.009 202.295 253.319 205.522 251.101 208.479C248.689 211.824 244.393 214.435 238.901 216.211C233.391 217.994 226.611 218.958 219.145 218.958H217.854C205.241 218.701 191.612 215.871 178.25 210.474L178.132 210.426L178.042 210.336C177.939 210.234 177.724 210.029 177.605 209.791C177.537 209.654 177.476 209.464 177.504 209.241C177.532 209.011 177.646 208.825 177.786 208.684L178.009 208.472C178.102 208.391 178.213 208.307 178.333 208.248C178.469 208.18 178.659 208.118 178.882 208.146C179.052 208.167 179.199 208.234 179.32 208.325C192.272 213.392 205.462 216.175 217.88 216.428H217.879C225.241 216.555 231.95 215.666 237.374 213.995C242.813 212.319 246.889 209.879 249.077 206.961L249.399 206.507C250.938 204.225 251.358 201.709 250.816 198.875C250.233 195.824 248.531 192.399 245.866 188.544C240.534 180.832 231.501 171.605 220.49 160.466L220.935 160.027H220.679L220.493 160.213C220.433 160.154 220.385 160.091 220.346 160.027H220.309V159.958C220.145 159.63 220.207 159.276 220.278 159.062C220.288 159.033 220.298 159.004 220.309 158.976V158.503L220.468 158.664C220.552 158.527 220.65 158.404 220.749 158.305L220.863 158.207C220.985 158.114 221.133 158.045 221.305 158.023Z" fill="white" stroke="white" stroke-width="1.25181"/>
</g>
<defs>
<clipPath id="clip0_226_176">
<rect width="193" height="193" rx="58.34" fill="white"/>
</clipPath>
</defs>
</svg>
