<svg width="32" height="32" viewBox="0 0 32 32" fill="none" xmlns="http://www.w3.org/2000/svg">
<mask id="path-1-inside-1_58_45" fill="white">
<rect width="32" height="32" rx="1.71429"/>
</mask>
<rect width="32" height="32" rx="1.71429" stroke="#AEFF01" stroke-width="4" mask="url(#path-1-inside-1_58_45)"/>
<path d="M5.21801 22V9.4H9.89801C10.786 9.4 11.572 9.58 12.256 9.94C12.94 10.288 13.474 10.78 13.858 11.416C14.242 12.04 14.434 12.766 14.434 13.594C14.434 14.41 14.248 15.136 13.876 15.772C13.504 16.408 12.994 16.912 12.346 17.284C11.698 17.644 10.948 17.824 10.096 17.824H7.68401V22H5.21801ZM7.68401 15.556H10.042C10.594 15.556 11.044 15.376 11.392 15.016C11.752 14.644 11.932 14.17 11.932 13.594C11.932 13.018 11.734 12.55 11.338 12.19C10.954 11.83 10.456 11.65 9.84401 11.65H7.68401V15.556ZM21.8957 22.216C20.6717 22.216 19.5857 21.94 18.6377 21.388C17.6897 20.824 16.9457 20.056 16.4057 19.084C15.8657 18.1 15.5957 16.972 15.5957 15.7C15.5957 14.428 15.8657 13.306 16.4057 12.334C16.9457 11.35 17.6837 10.582 18.6197 10.03C19.5677 9.466 20.6537 9.184 21.8777 9.184C22.7417 9.184 23.5457 9.34 24.2897 9.652C25.0337 9.952 25.6817 10.378 26.2337 10.93C26.7977 11.47 27.2297 12.094 27.5297 12.802L25.2437 13.648C25.0397 13.204 24.7697 12.82 24.4337 12.496C24.0977 12.16 23.7137 11.902 23.2817 11.722C22.8497 11.53 22.3817 11.434 21.8777 11.434C21.1457 11.434 20.4917 11.62 19.9157 11.992C19.3517 12.352 18.9077 12.85 18.5837 13.486C18.2717 14.122 18.1157 14.86 18.1157 15.7C18.1157 16.54 18.2777 17.284 18.6017 17.932C18.9257 18.568 19.3757 19.072 19.9517 19.444C20.5277 19.804 21.1877 19.984 21.9317 19.984C22.4477 19.984 22.9157 19.888 23.3357 19.696C23.7677 19.492 24.1457 19.216 24.4697 18.868C24.8057 18.52 25.0757 18.118 25.2797 17.662L27.5657 18.49C27.2657 19.222 26.8337 19.87 26.2697 20.434C25.7177 20.998 25.0697 21.436 24.3257 21.748C23.5817 22.06 22.7717 22.216 21.8957 22.216Z" fill="#AEFF01"/>
</svg>
